<svg width="198" height="130" viewBox="0 0 198 130" fill="none" xmlns="http://www.w3.org/2000/svg">
<path d="M172.872 11.9285C172.231 11.4226 171.483 11.0684 170.684 10.8924C169.886 10.7164 169.059 10.723 168.264 10.9118L126.785 21.2815L85.2389 0.474428H85.1711L84.6289 0.271103H84.4934L84.0189 0.135551H83.8156L83.3412 0H81.5112L38.135 10.8441C36.941 11.1358 35.8816 11.8246 35.1305 12.7974C34.3793 13.7702 33.9809 14.9694 34.0007 16.1983V113.795C33.9928 114.621 34.1787 115.438 34.5436 116.18C34.9085 116.921 35.4421 117.567 36.1017 118.065C37.0475 118.812 38.2176 119.217 39.4227 119.217L40.7105 119.081L82.189 108.712L123.735 129.519H123.803L124.277 129.722H124.345L124.887 129.925H127.463L170.839 119.081C172.022 118.792 173.073 118.114 173.823 117.155C174.572 116.196 174.978 115.012 174.973 113.795V16.1983C174.981 15.3719 174.795 14.5551 174.431 13.8136C174.066 13.0721 173.532 12.4264 172.872 11.9285ZM120.753 115.896L88.221 99.6298V14.0973L120.753 30.3634V115.896Z" fill="#FFE1CB"/>
<path d="M175.366 37C169.436 37.0067 163.751 39.3653 159.558 43.5582C155.365 47.7512 153.007 53.4361 153 59.3659C153 78.5039 173.333 92.9655 174.197 93.5755C174.543 93.8061 174.95 93.9291 175.366 93.9291C175.782 93.9291 176.189 93.8061 176.535 93.5755C177.399 92.9655 197.732 78.5039 197.732 59.3659C197.725 53.4361 195.366 47.7512 191.174 43.5582C186.981 39.3653 181.296 37.0067 175.366 37ZM175.366 51.2328C176.974 51.2328 178.547 51.7098 179.884 52.6035C181.222 53.4972 182.264 54.7674 182.88 56.2535C183.495 57.7396 183.656 59.3749 183.343 60.9525C183.029 62.5302 182.254 63.9794 181.117 65.1168C179.979 66.2542 178.53 67.0288 176.953 67.3426C175.375 67.6565 173.74 67.4954 172.253 66.8798C170.767 66.2643 169.497 65.2218 168.603 63.8843C167.71 62.5469 167.233 60.9744 167.233 59.3659C167.233 57.2089 168.09 55.1402 169.615 53.6149C171.14 52.0897 173.209 51.2328 175.366 51.2328Z" fill="#FB964B"/>
<rect y="51" width="141" height="28" rx="14" fill="#152E3F"/>
<path d="M126.239 64.2073C126.239 65.0045 126.002 65.7838 125.559 66.4466C125.116 67.1095 124.487 67.6261 123.75 67.9312C123.014 68.2363 122.203 68.3161 121.421 68.1606C120.639 68.005 119.921 67.6211 119.357 67.0574C118.794 66.4937 118.41 65.7755 118.254 64.9936C118.099 64.2118 118.178 63.4013 118.484 62.6648C118.789 61.9283 119.305 61.2988 119.968 60.8559C120.631 60.413 121.41 60.1766 122.208 60.1766C123.277 60.1766 124.302 60.6012 125.058 61.3572C125.814 62.1131 126.239 63.1383 126.239 64.2073ZM129.84 71.8455C129.739 71.9443 129.604 71.9998 129.463 72C129.321 71.9994 129.184 71.9441 129.08 71.8455L126.178 68.9367C124.956 69.9633 123.384 70.4784 121.791 70.3746C120.199 70.2708 118.707 69.5561 117.628 68.3795C116.55 67.2029 115.967 65.6553 116.001 64.0595C116.036 62.4637 116.685 60.9428 117.814 59.8141C118.943 58.6855 120.464 58.0361 122.06 58.0015C123.656 57.9668 125.204 58.5496 126.38 59.6283C127.557 60.707 128.272 62.1982 128.375 63.7911C128.479 65.3839 127.964 66.9553 126.937 68.1775L129.84 71.0797C129.89 71.1297 129.931 71.1893 129.958 71.255C129.986 71.3207 130 71.3913 130 71.4626C130 71.5338 129.986 71.6044 129.958 71.6701C129.931 71.7359 129.89 71.7955 129.84 71.8455ZM122.208 69.3129C123.218 69.3129 124.205 69.0134 125.044 68.4524C125.884 67.8914 126.538 67.094 126.925 66.1611C127.311 65.2282 127.412 64.2016 127.215 63.2112C127.018 62.2209 126.532 61.3111 125.818 60.5971C125.104 59.8831 124.194 59.3968 123.204 59.1998C122.213 59.0028 121.187 59.1039 120.254 59.4904C119.321 59.8768 118.523 60.5312 117.962 61.3708C117.401 62.2104 117.102 63.1975 117.102 64.2073C117.104 65.5608 117.642 66.8584 118.599 67.8155C119.556 68.7726 120.854 69.3111 122.208 69.3129Z" fill="white"/>
<line x1="15.5" y1="65.5" x2="75.5" y2="65.5" stroke="#28475C" stroke-width="5" stroke-linecap="round"/>
</svg>
