<svg width="222" height="169" viewBox="0 0 222 169" fill="none" xmlns="http://www.w3.org/2000/svg">
<path d="M103.443 151.713C103.111 153.015 102.357 154.171 101.298 154.998C100.24 155.826 98.9366 156.28 97.5928 156.288C97.1091 156.286 96.6285 156.21 96.1678 156.063L73.5178 150.438C71.6806 149.974 69.9826 149.074 68.5678 147.813L51.6928 133.113C51.1019 132.601 50.6176 131.977 50.2676 131.278C49.9176 130.579 49.7088 129.817 49.6531 129.037C49.5974 128.257 49.6959 127.474 49.9429 126.732C50.1899 125.99 50.5807 125.304 51.0928 124.713C51.605 124.122 52.2285 123.638 52.9278 123.288C53.6271 122.938 54.3885 122.729 55.1686 122.673C55.9486 122.618 56.7319 122.716 57.4739 122.963C58.2158 123.21 58.9019 123.601 59.4928 124.113L76.4428 138.813L99.0178 144.438C100.562 144.829 101.891 145.81 102.718 147.17C103.546 148.531 103.806 150.162 103.443 151.713ZM202.893 80.313C202.4 81.8235 201.608 83.2194 200.564 84.4177C199.52 85.616 198.246 86.5921 196.818 87.288L179.343 96.063L168.168 109.188H168.018C168.018 109.263 167.943 109.263 167.943 109.338H167.868L140.268 136.938C137.98 139.174 134.916 140.437 131.718 140.463C130.756 140.454 129.799 140.328 128.868 140.088L85.3678 129.363C83.7254 128.98 82.1885 128.237 80.8678 127.188L40.3678 95.538L22.3678 86.538C19.4926 85.0808 17.3092 82.547 16.2928 79.488C15.8123 77.9724 15.6378 76.3763 15.7795 74.7927C15.9211 73.209 16.376 71.6693 17.1178 70.263L35.5678 34.938C37.0259 32.1581 39.5091 30.0553 42.4913 29.0752C45.4734 28.0952 48.72 28.315 51.5428 29.688L68.3428 38.088L104.868 27.438C107.606 26.6919 110.517 26.9036 113.118 28.038L137.868 39.288H150.168L167.643 30.513C170.453 29.1147 173.7 28.8733 176.686 29.8407C179.673 30.8082 182.161 32.9073 183.618 35.688L202.068 71.013C202.812 72.4322 203.268 73.9845 203.409 75.5806C203.551 77.1767 203.375 78.785 202.893 80.313ZM154.368 105.963L130.668 88.713L124.593 93.288C119.39 97.1597 113.078 99.2507 106.593 99.2507C100.108 99.2507 93.7954 97.1597 88.5928 93.288L84.5428 90.213C83.1592 89.1883 82.0139 87.8761 81.1856 86.3667C80.3573 84.8573 79.8657 83.1865 79.7446 81.469C79.6234 79.7515 79.8756 78.0282 80.4838 76.4174C81.092 74.8067 82.0418 73.3468 83.2678 72.138L112.593 42.738L113.943 41.613L108.168 38.988L71.6428 49.638L51.2428 88.788L88.2928 117.738L131.718 128.613L154.368 105.963ZM168.393 90.438L147.993 51.288H121.068L91.7428 80.613L95.7928 83.688C98.9229 85.9907 102.707 87.2327 106.593 87.2327C110.479 87.2327 114.263 85.9907 117.393 83.688L126.993 76.488C128.017 75.7158 129.261 75.2918 130.543 75.2783C131.825 75.2648 133.078 75.6625 134.118 76.413L162.618 97.113L168.393 90.438Z" fill="#FFE1CB"/>
<circle cx="108.732" cy="32" r="32" fill="#152E3F"/>
<path d="M123.698 42.9714H121.632V31.2439C121.632 30.9611 121.572 30.6814 121.454 30.4234C121.336 30.1654 121.163 29.9351 120.947 29.7478L110.614 20.5306C110.235 20.1893 109.739 20 109.225 20C108.711 20 108.216 20.1893 107.837 20.5306L97.5034 29.7478C97.2918 29.9378 97.1229 30.1689 97.0072 30.4265C96.8916 30.684 96.8318 30.9624 96.8318 31.2439V42.9714H94.7651C94.491 42.9714 94.2282 43.0783 94.0344 43.2685C93.8406 43.4587 93.7318 43.7167 93.7318 43.9857C93.7318 44.2547 93.8406 44.5127 94.0344 44.7029C94.2282 44.8931 94.491 45 94.7651 45H123.698C123.972 45 124.235 44.8931 124.429 44.7029C124.623 44.5127 124.732 44.2547 124.732 43.9857C124.732 43.7167 124.623 43.4587 124.429 43.2685C124.235 43.0783 123.972 42.9714 123.698 42.9714ZM112.332 42.9714H106.132V36.8858C106.132 36.6168 106.241 36.3588 106.434 36.1686C106.628 35.9784 106.891 35.8715 107.165 35.8715H111.298C111.572 35.8715 111.835 35.9784 112.029 36.1686C112.223 36.3588 112.332 36.6168 112.332 36.8858V42.9714Z" fill="#FB964B"/>
<g filter="url(#filter0_d_77_1126)">
<circle cx="181.732" cy="120" r="32" fill="white"/>
</g>
<path d="M194.798 129.154H192.932V120.846V120.788C192.932 120.772 192.928 120.756 192.92 120.742L191.17 108.604C191.111 108.161 190.891 107.755 190.553 107.46C190.214 107.165 189.778 107.002 189.327 107H187.203C186.756 107.001 186.323 107.161 185.984 107.451C185.646 107.742 185.424 108.142 185.36 108.581L184.007 117.927L179.492 114.569C179.353 114.466 179.188 114.404 179.016 114.388C178.843 114.373 178.669 114.405 178.514 114.482C178.359 114.559 178.229 114.677 178.138 114.822C178.047 114.968 177.998 115.136 177.998 115.308V119L172.025 114.569C171.886 114.466 171.722 114.404 171.549 114.388C171.376 114.373 171.203 114.405 171.048 114.482C170.893 114.559 170.762 114.677 170.671 114.822C170.58 114.968 170.532 115.136 170.532 115.308V129.154H168.665C168.418 129.154 168.18 129.251 168.005 129.424C167.83 129.597 167.732 129.832 167.732 130.077C167.732 130.322 167.83 130.557 168.005 130.73C168.18 130.903 168.418 131 168.665 131H194.798C195.046 131 195.283 130.903 195.458 130.73C195.633 130.557 195.732 130.322 195.732 130.077C195.732 129.832 195.633 129.597 195.458 129.424C195.283 129.251 195.046 129.154 194.798 129.154ZM178.465 126.385H175.198C174.951 126.385 174.713 126.287 174.538 126.114C174.363 125.941 174.265 125.706 174.265 125.462C174.265 125.217 174.363 124.982 174.538 124.809C174.713 124.636 174.951 124.538 175.198 124.538H178.465C178.713 124.538 178.95 124.636 179.125 124.809C179.3 124.982 179.398 125.217 179.398 125.462C179.398 125.706 179.3 125.941 179.125 126.114C178.95 126.287 178.713 126.385 178.465 126.385ZM188.265 126.385H184.998C184.751 126.385 184.513 126.287 184.338 126.114C184.163 125.941 184.065 125.706 184.065 125.462C184.065 125.217 184.163 124.982 184.338 124.809C184.513 124.636 184.751 124.538 184.998 124.538H188.265C188.513 124.538 188.75 124.636 188.925 124.809C189.1 124.982 189.198 125.217 189.198 125.462C189.198 125.706 189.1 125.941 188.925 126.114C188.75 126.287 188.513 126.385 188.265 126.385ZM186.713 119.923L185.71 119.185L187.203 108.846H189.327L190.925 119.923H186.713Z" fill="#FB964B"/>
<g filter="url(#filter1_d_77_1126)">
<circle cx="40.7318" cy="120" r="32" fill="#FB964B"/>
</g>
<path d="M54.7318 132H53.7318V119C53.7318 118.47 53.521 117.961 53.146 117.586C52.7709 117.211 52.2622 117 51.7318 117H43.7318V111C43.7318 110.47 43.521 109.961 43.146 109.586C42.7709 109.211 42.2622 109 41.7318 109H29.7318C29.2013 109 28.6926 109.211 28.3175 109.586C27.9425 109.961 27.7318 110.47 27.7318 111V132H26.7318C26.4665 132 26.2122 132.105 26.0246 132.293C25.8371 132.48 25.7318 132.735 25.7318 133C25.7318 133.265 25.8371 133.52 26.0246 133.707C26.2122 133.895 26.4665 134 26.7318 134H54.7318C54.997 134 55.2513 133.895 55.4389 133.707C55.6264 133.52 55.7318 133.265 55.7318 133C55.7318 132.735 55.6264 132.48 55.4389 132.293C55.2513 132.105 54.997 132 54.7318 132ZM39.7318 123C39.7318 123.265 39.6264 123.52 39.4389 123.707C39.2513 123.895 38.997 124 38.7318 124H34.7318C34.4665 124 34.2122 123.895 34.0246 123.707C33.8371 123.52 33.7318 123.265 33.7318 123C33.7318 122.735 33.8371 122.48 34.0246 122.293C34.2122 122.105 34.4665 122 34.7318 122H38.7318C38.997 122 39.2513 122.105 39.4389 122.293C39.6264 122.48 39.7318 122.735 39.7318 123ZM32.7318 114H36.7318C36.997 114 37.2513 114.105 37.4389 114.293C37.6264 114.48 37.7318 114.735 37.7318 115C37.7318 115.265 37.6264 115.52 37.4389 115.707C37.2513 115.895 36.997 116 36.7318 116H32.7318C32.4665 116 32.2122 115.895 32.0246 115.707C31.8371 115.52 31.7318 115.265 31.7318 115C31.7318 114.735 31.8371 114.48 32.0246 114.293C32.2122 114.105 32.4665 114 32.7318 114ZM32.7318 127H36.7318C36.997 127 37.2513 127.105 37.4389 127.293C37.6264 127.48 37.7318 127.735 37.7318 128C37.7318 128.265 37.6264 128.52 37.4389 128.707C37.2513 128.895 36.997 129 36.7318 129H32.7318C32.4665 129 32.2122 128.895 32.0246 128.707C31.8371 128.52 31.7318 128.265 31.7318 128C31.7318 127.735 31.8371 127.48 32.0246 127.293C32.2122 127.105 32.4665 127 32.7318 127ZM43.7318 119H51.7318V132H43.7318V119Z" fill="white"/>
<path d="M48.7318 127H46.7318C46.4665 127 46.2122 127.105 46.0246 127.293C45.8371 127.48 45.7318 127.735 45.7318 128C45.7318 128.265 45.8371 128.52 46.0246 128.707C46.2122 128.895 46.4665 129 46.7318 129H48.7318C48.997 129 49.2513 128.895 49.4389 128.707C49.6264 128.52 49.7318 128.265 49.7318 128C49.7318 127.735 49.6264 127.48 49.4389 127.293C49.2513 127.105 48.997 127 48.7318 127Z" fill="white"/>
<path d="M46.7318 124H48.7318C48.997 124 49.2513 123.895 49.4389 123.707C49.6264 123.52 49.7318 123.265 49.7318 123C49.7318 122.735 49.6264 122.48 49.4389 122.293C49.2513 122.105 48.997 122 48.7318 122H46.7318C46.4665 122 46.2122 122.105 46.0246 122.293C45.8371 122.48 45.7318 122.735 45.7318 123C45.7318 123.265 45.8371 123.52 46.0246 123.707C46.2122 123.895 46.4665 124 46.7318 124Z" fill="white"/>
<defs>
<filter id="filter0_d_77_1126" x="141.732" y="88" width="80" height="81" filterUnits="userSpaceOnUse" color-interpolation-filters="sRGB">
<feFlood flood-opacity="0" result="BackgroundImageFix"/>
<feColorMatrix in="SourceAlpha" type="matrix" values="0 0 0 0 0 0 0 0 0 0 0 0 0 0 0 0 0 0 127 0" result="hardAlpha"/>
<feOffset dy="9"/>
<feGaussianBlur stdDeviation="4"/>
<feComposite in2="hardAlpha" operator="out"/>
<feColorMatrix type="matrix" values="0 0 0 0 0.795833 0 0 0 0 0.795833 0 0 0 0 0.795833 0 0 0 0.25 0"/>
<feBlend mode="normal" in2="BackgroundImageFix" result="effect1_dropShadow_77_1126"/>
<feBlend mode="normal" in="SourceGraphic" in2="effect1_dropShadow_77_1126" result="shape"/>
</filter>
<filter id="filter1_d_77_1126" x="0.73175" y="88" width="80" height="81" filterUnits="userSpaceOnUse" color-interpolation-filters="sRGB">
<feFlood flood-opacity="0" result="BackgroundImageFix"/>
<feColorMatrix in="SourceAlpha" type="matrix" values="0 0 0 0 0 0 0 0 0 0 0 0 0 0 0 0 0 0 127 0" result="hardAlpha"/>
<feOffset dy="9"/>
<feGaussianBlur stdDeviation="4"/>
<feComposite in2="hardAlpha" operator="out"/>
<feColorMatrix type="matrix" values="0 0 0 0 0.795833 0 0 0 0 0.795833 0 0 0 0 0.795833 0 0 0 0.25 0"/>
<feBlend mode="normal" in2="BackgroundImageFix" result="effect1_dropShadow_77_1126"/>
<feBlend mode="normal" in="SourceGraphic" in2="effect1_dropShadow_77_1126" result="shape"/>
</filter>
</defs>
</svg>
