<svg width="17" height="16" viewBox="0 0 17 16" fill="none" xmlns="http://www.w3.org/2000/svg">
<path d="M11.4168 1.29238C12.3066 1.29493 13.1592 1.63621 13.7884 2.24168C14.4176 2.84714 14.7723 3.66759 14.7749 4.52384V10.9861C14.7723 11.8423 14.4176 12.6628 13.7884 13.2682C13.1592 13.8737 12.3066 14.215 11.4168 14.2175H4.70119C3.81137 14.215 2.95876 13.8737 2.32956 13.2682C1.70036 12.6628 1.3457 11.8423 1.34304 10.9861V4.52384C1.3457 3.66759 1.70036 2.84714 2.32956 2.24168C2.95876 1.63621 3.81137 1.29493 4.70119 1.29238H11.4168ZM11.4168 0H4.70119C2.11548 0 0 2.03568 0 4.52384V10.9861C0 13.4742 2.11548 15.5099 4.70119 15.5099H11.4168C14.0025 15.5099 16.118 13.4742 16.118 10.9861V4.52384C16.118 2.03568 14.0025 0 11.4168 0Z" fill="white"/>
<path d="M12.4244 4.5237C12.2252 4.5237 12.0304 4.46685 11.8648 4.36033C11.6991 4.25382 11.57 4.10242 11.4937 3.92529C11.4175 3.74816 11.3975 3.55326 11.4364 3.36522C11.4753 3.17718 11.5712 3.00445 11.7121 2.86888C11.853 2.73331 12.0325 2.64099 12.2279 2.60359C12.4233 2.56618 12.6259 2.58538 12.8099 2.65875C12.994 2.73212 13.1513 2.85637 13.262 3.01578C13.3727 3.17519 13.4318 3.36261 13.4318 3.55433C13.4321 3.68171 13.4062 3.80788 13.3557 3.92562C13.3052 4.04335 13.231 4.15032 13.1374 4.24039C13.0438 4.33046 12.9326 4.40185 12.8103 4.45047C12.6879 4.49909 12.5568 4.52397 12.4244 4.5237ZM8.05928 5.16972C8.5906 5.16972 9.11 5.32133 9.55178 5.60538C9.99357 5.88944 10.3379 6.29318 10.5412 6.76554C10.7446 7.23791 10.7978 7.75768 10.6941 8.25914C10.5904 8.7606 10.3346 9.22122 9.95888 9.58276C9.58317 9.94429 9.10449 10.1905 8.58337 10.2902C8.06225 10.39 7.5221 10.3388 7.03122 10.1431C6.54033 9.94748 6.12077 9.61614 5.82558 9.19102C5.53039 8.7659 5.37283 8.2661 5.37283 7.75482C5.37359 7.06943 5.65687 6.41233 6.16051 5.92768C6.66415 5.44304 7.34702 5.17045 8.05928 5.16972ZM8.05928 3.87734C7.26232 3.87734 6.48326 4.10475 5.82061 4.53081C5.15797 4.95687 4.6415 5.56245 4.33651 6.27097C4.03153 6.97949 3.95173 7.75912 4.10721 8.51127C4.26269 9.26343 4.64646 9.95433 5.21 10.4966C5.77353 11.0389 6.49152 11.4082 7.27316 11.5578C8.05481 11.7074 8.865 11.6306 9.60129 11.3371C10.3376 11.0437 10.9669 10.5467 11.4097 9.90903C11.8524 9.27138 12.0888 8.52171 12.0888 7.75482C12.0888 6.72644 11.6642 5.74019 10.9086 5.01303C10.1529 4.28586 9.12796 3.87734 8.05928 3.87734Z" fill="white"/>
</svg>
