<svg width="28" height="28" viewBox="0 0 28 28" fill="none" xmlns="http://www.w3.org/2000/svg">
<path d="M26.6401 18.8022L20.0642 15.998C19.7249 15.8459 19.3524 15.7828 18.9819 15.8147C18.6115 15.8466 18.2553 15.9724 17.947 16.1802L14.4277 18.5217C12.2828 17.48 10.5462 15.7533 9.49227 13.6144V13.6144L11.8198 10.053C12.0262 9.74438 12.1523 9.38907 12.1866 9.01933C12.2209 8.6496 12.1623 8.27716 12.0161 7.93583L9.19783 1.35995C9.00117 0.915919 8.66819 0.546075 8.24717 0.304051C7.82615 0.0620274 7.33898 -0.0395945 6.85631 0.0139226C4.96289 0.261961 3.22397 1.18913 1.96284 2.62305C0.701718 4.05696 0.00420963 5.90005 0 7.80964C0 18.9424 9.05762 28 20.1904 28C22.0999 27.9958 23.943 27.2983 25.377 26.0372C26.8109 24.776 27.738 23.0371 27.9861 21.1437C28.0396 20.661 27.938 20.1739 27.6959 19.7528C27.4539 19.3318 27.0841 18.9988 26.6401 18.8022Z" fill="#FB964B"/>
<path d="M17.8158 3.96404C19.3122 4.37542 20.6761 5.17231 21.773 6.27607C22.8699 7.37983 23.6618 8.75231 24.0707 10.2581C24.1249 10.4695 24.2471 10.6569 24.4183 10.7911C24.5894 10.9253 24.7999 10.9987 25.0169 11C25.1042 10.9998 25.1911 10.9873 25.2749 10.9629C25.3999 10.93 25.5171 10.8723 25.6196 10.7933C25.7222 10.7142 25.808 10.6154 25.8721 10.5025C25.9362 10.3897 25.9772 10.2651 25.9929 10.136C26.0085 10.007 25.9984 9.87613 25.9631 9.75109C25.4716 7.90701 24.5066 6.22551 23.1649 4.87547C21.8233 3.52542 20.1522 2.55435 18.3196 2.05976C18.1914 2.01275 18.0548 1.99312 17.9186 2.00213C17.7824 2.01114 17.6496 2.04858 17.5286 2.11207C17.4076 2.17556 17.301 2.26372 17.2157 2.37092C17.1304 2.47812 17.0682 2.60202 17.0331 2.73473C16.998 2.86745 16.9907 3.00606 17.0118 3.14175C17.0328 3.27745 17.0817 3.40724 17.1553 3.52288C17.2289 3.63852 17.3257 3.73747 17.4394 3.81342C17.5531 3.88937 17.6813 3.94067 17.8158 3.96404V3.96404Z" fill="#FB964B"/>
<path d="M15.9178 8.21552C16.8536 8.47398 17.7065 8.97392 18.3926 9.66611C19.0786 10.3583 19.5742 11.2189 19.8303 12.163C19.8892 12.4027 20.0261 12.6155 20.2191 12.7672C20.4122 12.919 20.6502 13.001 20.8949 13C20.9887 13.0009 21.082 12.9868 21.1714 12.9581C21.3132 12.9225 21.4465 12.8586 21.5634 12.7701C21.6803 12.6815 21.7784 12.5702 21.8519 12.4428C21.9254 12.3153 21.9728 12.1742 21.9912 12.0279C22.0097 11.8817 21.9989 11.7331 21.9594 11.5911C21.6103 10.2653 20.92 9.05615 19.9586 8.08612C18.9971 7.1161 17.7987 6.41968 16.4846 6.06741C16.3403 6.01438 16.1867 5.99224 16.0335 6.0024C15.8803 6.01256 15.7308 6.0548 15.5947 6.12642C15.4585 6.19804 15.3386 6.29748 15.2427 6.41841C15.1467 6.53934 15.0767 6.67911 15.0372 6.82881C14.9977 6.97852 14.9896 7.13488 15.0132 7.28795C15.0369 7.44101 15.0919 7.58743 15.1747 7.71788C15.2576 7.84832 15.3664 7.95994 15.4943 8.04561C15.6223 8.13129 15.7665 8.18916 15.9178 8.21552V8.21552Z" fill="#FB964B"/>
</svg>
