<svg width="27" height="27" viewBox="0 0 27 27" fill="none" xmlns="http://www.w3.org/2000/svg">
<path d="M26.9229 2.37324L20.9215 23.671C20.8215 24.0317 20.6127 24.3527 20.3238 24.5905C20.0349 24.8283 19.6797 24.9713 19.3067 25H19.1463C18.8012 24.9992 18.4633 24.901 18.1715 24.7165C17.8797 24.5321 17.6459 24.269 17.4971 23.9575L13.4084 15.3192C13.3682 15.2324 13.3555 15.1355 13.3719 15.0414C13.3882 14.9472 13.4329 14.8603 13.5 14.7922L19.3754 8.91495C19.4674 8.83159 19.5414 8.7304 19.5931 8.61752C19.6448 8.50465 19.6731 8.38244 19.6761 8.25832C19.6792 8.1342 19.657 8.01075 19.6109 7.89547C19.5648 7.78019 19.4958 7.67547 19.4081 7.58768C19.3203 7.49989 19.2156 7.43085 19.1004 7.38475C18.9851 7.33865 18.8617 7.31646 18.7376 7.31951C18.6135 7.32257 18.4914 7.35081 18.3785 7.40253C18.2657 7.45424 18.1645 7.52835 18.0812 7.62036L12.2058 13.509C12.1377 13.5761 12.0508 13.6208 11.9567 13.6372C11.8626 13.6536 11.7657 13.6409 11.679 13.6007L3.08924 9.53361C2.75304 9.37477 2.47078 9.1208 2.2774 8.80314C2.08401 8.48548 1.98799 8.11807 2.0012 7.74638C2.02147 7.36368 2.16189 6.99713 2.40247 6.69887C2.64306 6.40062 2.97155 6.18587 3.3412 6.08518L24.6781 0.0704679C25.0513 -0.0361425 25.4487 -0.0214746 25.813 0.112358C26.1773 0.24619 26.4898 0.492275 26.7053 0.815146C26.8499 1.04459 26.9441 1.30216 26.9816 1.57078C27.0191 1.83941 26.9991 2.11294 26.9229 2.37324Z" fill="#FB964B"/>
<path d="M3.35413 16.1487C4.99122 16.5988 6.4834 17.4706 7.68342 18.6781C8.88344 19.8856 9.74983 21.3871 10.1971 23.0345C10.2564 23.2658 10.3901 23.4708 10.5774 23.6176C10.7646 23.7644 10.9949 23.8448 11.2323 23.8462C11.3278 23.846 11.4228 23.8323 11.5146 23.8056C11.6513 23.7696 11.7795 23.7065 11.8917 23.62C12.0039 23.5335 12.0978 23.4254 12.1679 23.3019C12.238 23.1784 12.2829 23.0421 12.3 22.901C12.3171 22.7598 12.306 22.6166 12.2675 22.4798C11.7297 20.4624 10.674 18.6228 9.20618 17.1458C7.73839 15.6688 5.91025 14.6065 3.90533 14.0654C3.76504 14.0139 3.61564 13.9925 3.46665 14.0023C3.31766 14.0122 3.17234 14.0531 3.03995 14.1226C2.90755 14.1921 2.79098 14.2885 2.69765 14.4058C2.60432 14.5231 2.53629 14.6586 2.49787 14.8038C2.45946 14.949 2.45151 15.1006 2.47453 15.2491C2.49755 15.3975 2.55104 15.5395 2.63158 15.6661C2.71213 15.7926 2.81797 15.9008 2.94237 15.9839C3.06677 16.067 3.207 16.1231 3.35413 16.1487Z" fill="#FB964B"/>
<path d="M0.968206 21.2601C1.95543 21.5328 2.85524 22.0602 3.57899 22.7904C4.30275 23.5206 4.82549 24.4285 5.09573 25.4245C5.15782 25.6773 5.30227 25.9018 5.50592 26.0619C5.70956 26.222 5.9606 26.3085 6.21877 26.3074C6.3177 26.3084 6.41617 26.2935 6.51047 26.2633C6.6601 26.2257 6.80074 26.1583 6.92406 26.0649C7.04738 25.9715 7.15087 25.8541 7.2284 25.7196C7.30592 25.5851 7.3559 25.4363 7.37538 25.282C7.39486 25.1277 7.38344 24.971 7.3418 24.8212C6.97347 23.4225 6.24529 22.1469 5.23103 21.1236C4.21677 20.1003 2.95247 19.3656 1.56619 18.994C1.41399 18.938 1.25191 18.9147 1.09028 18.9254C0.928641 18.9361 0.770987 18.9807 0.627354 19.0562C0.483721 19.1318 0.357254 19.2367 0.256007 19.3643C0.154759 19.4918 0.0809503 19.6393 0.0392763 19.7972C-0.00239771 19.9551 -0.0110236 20.1201 0.0139503 20.2816C0.0389243 20.443 0.0969506 20.5975 0.184333 20.7351C0.271715 20.8727 0.386541 20.9905 0.521497 21.0809C0.656454 21.1712 0.808586 21.2323 0.968206 21.2601Z" fill="#FB964B"/>
</svg>
