<svg width="24" height="16" viewBox="0 0 24 16" fill="none" xmlns="http://www.w3.org/2000/svg">
<path d="M1.80952 1H14.7619C15.6207 1 16.4443 1.34706 17.0516 1.96482C17.6588 2.58259 18 3.42046 18 4.29412V14.1765C18 14.3949 17.9147 14.6044 17.7629 14.7588C17.6111 14.9132 17.4052 15 17.1905 15H4.2381C3.3793 15 2.55568 14.6529 1.94842 14.0352C1.34116 13.4174 1 12.5795 1 11.7059V1.82353C1 1.60512 1.08529 1.39565 1.2371 1.24121C1.38892 1.08676 1.59482 1 1.80952 1V1Z" stroke="#B7C3CC" stroke-width="2" stroke-linecap="round" stroke-linejoin="round"/>
<path d="M18 6.33333L23 3V13L18 9.66667" stroke="#B7C3CC" stroke-width="2" stroke-linecap="round" stroke-linejoin="round"/>
</svg>
