<svg width="22" height="21" viewBox="0 0 22 21" fill="none" xmlns="http://www.w3.org/2000/svg">
<path d="M1 19.4592H20.9998" stroke="#B7C3CC" stroke-width="1.5" stroke-linecap="round" stroke-linejoin="round"/>
<path d="M4.0769 19.4592V1.76703C4.0769 1.56302 4.15795 1.36736 4.30221 1.2231C4.44646 1.07885 4.64212 0.997803 4.84613 0.997803H17.1537C17.3577 0.997803 17.5534 1.07885 17.6976 1.2231C17.8419 1.36736 17.9229 1.56302 17.9229 1.76703V19.4592" stroke="#B7C3CC" stroke-width="1.5" stroke-linecap="round" stroke-linejoin="round"/>
<path d="M13.6922 11.1899C14.2233 11.1899 14.6538 10.7594 14.6538 10.2284C14.6538 9.69734 14.2233 9.26685 13.6922 9.26685C13.1612 9.26685 12.7307 9.69734 12.7307 10.2284C12.7307 10.7594 13.1612 11.1899 13.6922 11.1899Z" fill="#B7C3CC"/>
</svg>
