<svg width="22" height="22" viewBox="0 0 22 22" fill="none" xmlns="http://www.w3.org/2000/svg">
<path d="M13.9333 20.9998V4.86646H0.928889C0.682532 4.86646 0.446266 4.96644 0.272065 5.14442C0.097865 5.32239 0 5.56378 0 5.81547V20.0508C0 20.3025 0.097865 20.5439 0.272065 20.7218C0.446266 20.8998 0.682532 20.9998 0.928889 20.9998H13.9333Z" fill="white"/>
<path d="M11.0591 21.0147V7.15698" stroke="#B7C3CC" stroke-width="1.5" stroke-linecap="round" stroke-linejoin="round"/>
<path d="M11.0592 13.316L6.43994 11.0063" stroke="#B7C3CC" stroke-width="1.5" stroke-linecap="round" stroke-linejoin="round"/>
<path d="M11.0591 11.0064L15.6783 8.69678" stroke="#B7C3CC" stroke-width="1.5" stroke-linecap="round" stroke-linejoin="round"/>
<path d="M11.4922 16.1261C12.1985 16.6072 12.9972 16.936 13.8375 17.0917C14.6778 17.2473 15.5414 17.2264 16.3731 17.0302C17.2049 16.834 17.9868 16.4669 18.669 15.9521C19.3511 15.4374 19.9187 14.7863 20.3357 14.0403C20.7526 13.2943 21.0097 12.4697 21.0906 11.6189C21.1715 10.7681 21.0745 9.90986 20.8057 9.09862C20.5369 8.28739 20.1022 7.54097 19.5293 6.90684C18.9564 6.27271 18.2578 5.76475 17.4779 5.41527C17.3067 5.32918 17.1706 5.18633 17.093 5.01109C16.5941 3.82257 15.7553 2.80785 14.6818 2.09426C13.6084 1.38068 12.3481 1 11.0591 1C9.77014 1 8.50985 1.38068 7.43641 2.09426C6.36296 2.80785 5.52416 3.82257 5.02526 5.01109C4.94762 5.18633 4.81156 5.32918 4.64032 5.41527C3.86044 5.76475 3.16183 6.27271 2.58892 6.90684C2.01601 7.54097 1.58134 8.28739 1.31255 9.09862C1.04377 9.90986 0.946751 10.7681 1.02767 11.6189C1.1086 12.4697 1.36569 13.2943 1.7826 14.0403C2.19951 14.7863 2.76711 15.4374 3.4493 15.9521C4.13149 16.4669 4.91334 16.834 5.74512 17.0302C6.5769 17.2264 7.44041 17.2473 8.28071 17.0917C9.12102 16.936 9.91974 16.6072 10.6261 16.1261C10.7547 16.0417 10.9052 15.9967 11.0591 15.9967C11.213 15.9967 11.3635 16.0417 11.4922 16.1261Z" stroke="#B7C3CC" stroke-width="1.5" stroke-linecap="round" stroke-linejoin="round"/>
</svg>
