<svg width="20" height="15" viewBox="0 0 20 15" fill="none" xmlns="http://www.w3.org/2000/svg">
<path d="M7.42857 3.73684C7.42857 3.01099 7.69949 2.31486 8.18172 1.8016C8.66396 1.28834 9.31801 0.999999 10 0.999999C10.682 0.999999 11.336 1.28834 11.8183 1.8016C12.3005 2.31486 12.5714 3.01099 12.5714 3.73684L1.25714 12.7684C1.1492 12.8546 1.06947 12.9747 1.02924 13.1118C0.989012 13.2489 0.990324 13.3959 1.03299 13.5322C1.07566 13.6684 1.15752 13.7869 1.26697 13.8709C1.37643 13.9548 1.50793 14 1.64286 14L18.3571 14C18.4921 14 18.6236 13.9548 18.733 13.8709C18.8425 13.7869 18.9243 13.6684 18.967 13.5322C19.0097 13.3959 19.011 13.2489 18.9708 13.1118C18.9305 12.9747 18.8508 12.8546 18.7429 12.7684L10 5.78947" stroke="#B7C3CC" stroke-width="1.5" stroke-linecap="round" stroke-linejoin="round"/>
</svg>
