<svg width="24" height="24" viewBox="0 0 24 24" fill="none" xmlns="http://www.w3.org/2000/svg">
<path d="M14.9333 23V6.8667H1.92889C1.68253 6.8667 1.44627 6.96669 1.27207 7.14466C1.09786 7.32264 1 7.56402 1 7.81572V22.051C1 22.3027 1.09786 22.5441 1.27207 22.7221C1.44627 22.9 1.68253 23 1.92889 23H14.9333Z" fill="white"/>
<path d="M22.0833 6.8667H1.91667C1.41041 6.8667 1 7.29159 1 7.81572V22.051C1 22.5751 1.41041 23 1.91667 23H22.0833C22.5896 23 23 22.5751 23 22.051V7.81572C23 7.29159 22.5896 6.8667 22.0833 6.8667Z" stroke="#B7C3CC" stroke-width="1.5" stroke-linecap="round" stroke-linejoin="round"/>
<path d="M6.13342 1L12.0001 6.86667L17.8668 1" stroke="#B7C3CC" stroke-width="1.5" stroke-linecap="round" stroke-linejoin="round"/>
<path d="M18.9666 13.4666C19.5741 13.4666 20.0666 12.9741 20.0666 12.3666C20.0666 11.7591 19.5741 11.2666 18.9666 11.2666C18.3591 11.2666 17.8666 11.7591 17.8666 12.3666C17.8666 12.9741 18.3591 13.4666 18.9666 13.4666Z" fill="#B7C3CC"/>
<path d="M18.9666 18.6001C19.5741 18.6001 20.0666 18.1077 20.0666 17.5001C20.0666 16.8926 19.5741 16.4001 18.9666 16.4001C18.3591 16.4001 17.8666 16.8926 17.8666 17.5001C17.8666 18.1077 18.3591 18.6001 18.9666 18.6001Z" fill="#B7C3CC"/>
<path d="M14.9333 23V6.8667" stroke="#B7C3CC" stroke-width="1.5" stroke-linecap="round" stroke-linejoin="round"/>
</svg>
