<svg width="20" height="23" viewBox="0 0 20 23" fill="none" xmlns="http://www.w3.org/2000/svg">
<path d="M1 16L19 22" stroke="#B7C3CC" stroke-width="1.5" stroke-linecap="round" stroke-linejoin="round"/>
<path d="M19 16L1 22" stroke="#B7C3CC" stroke-width="1.5" stroke-linecap="round" stroke-linejoin="round"/>
<path d="M13 12.625C13 13.5201 12.7366 14.3786 12.2678 15.0115C11.7989 15.6444 11.163 16 10.5 16C9.83696 16 9.20107 15.6444 8.73223 15.0115C8.26339 14.3786 8 13.5201 8 12.625C8 9.25 10.5 7 10.5 7C10.5 7 13 9.25 13 12.625Z" stroke="#B7C3CC" stroke-width="1.5" stroke-linecap="round" stroke-linejoin="round"/>
<path d="M15 9.90625C15 11.5224 14.4732 13.0724 13.5355 14.2152C12.5979 15.358 11.3261 16 10 16C8.67392 16 7.40215 15.358 6.46447 14.2152C5.52678 13.0724 5 11.5224 5 9.90625C5 4.75 10 1 10 1C10 1 15 4.75 15 9.90625Z" stroke="#B7C3CC" stroke-width="1.5" stroke-linecap="round" stroke-linejoin="round"/>
</svg>
