<svg width="26" height="22" viewBox="0 0 26 22" fill="none" xmlns="http://www.w3.org/2000/svg">
<path d="M22.5454 11C23.8006 11 24.8182 9.98251 24.8182 8.72732C24.8182 7.47212 23.8006 6.45459 22.5454 6.45459C21.2902 6.45459 20.2727 7.47212 20.2727 8.72732C20.2727 9.98251 21.2902 11 22.5454 11Z" stroke="#B7C3CC" stroke-width="1.5" stroke-linecap="round" stroke-linejoin="round"/>
<path d="M3.45461 11C4.7098 11 5.72734 9.98251 5.72734 8.72732C5.72734 7.47212 4.7098 6.45459 3.45461 6.45459C2.19942 6.45459 1.18188 7.47212 1.18188 8.72732C1.18188 9.98251 2.19942 11 3.45461 11Z" stroke="#B7C3CC" stroke-width="1.5" stroke-linecap="round" stroke-linejoin="round"/>
<path d="M8.9092 5.54545C10.1644 5.54545 11.1819 4.52792 11.1819 3.27273C11.1819 2.01753 10.1644 1 8.9092 1C7.65401 1 6.63647 2.01753 6.63647 3.27273C6.63647 4.52792 7.65401 5.54545 8.9092 5.54545Z" stroke="#B7C3CC" stroke-width="1.5" stroke-linecap="round" stroke-linejoin="round"/>
<path d="M17.0911 5.54545C18.3463 5.54545 19.3638 4.52792 19.3638 3.27273C19.3638 2.01753 18.3463 1 17.0911 1C15.8359 1 14.8184 2.01753 14.8184 3.27273C14.8184 4.52792 15.8359 5.54545 17.0911 5.54545Z" stroke="#B7C3CC" stroke-width="1.5" stroke-linecap="round" stroke-linejoin="round"/>
<path d="M19.2825 14.1801C18.1416 13.543 17.2991 12.4827 16.938 11.2297V11.2297C16.6924 10.3775 16.1754 9.62807 15.465 9.09464C14.7546 8.5612 13.8895 8.27271 13.0002 8.27271C12.1109 8.27271 11.2457 8.5612 10.5354 9.09464C9.82498 9.62807 9.30796 10.3775 9.06237 11.2297C8.70128 12.4827 7.85874 13.543 6.7179 14.1801C6.00806 14.5657 5.44706 15.1758 5.12327 15.9143C4.79949 16.6528 4.73133 17.4777 4.92953 18.2591C5.12773 19.0405 5.58103 19.7339 6.21801 20.2302C6.85499 20.7264 7.63945 20.9972 8.4478 21C8.93617 21.0003 9.41973 20.9038 9.87042 20.7163C10.8626 20.3061 11.9261 20.095 13.0002 20.095C14.0742 20.095 15.1378 20.3061 16.1299 20.7163C16.5806 20.9038 17.0642 21.0003 17.5526 21C18.3609 20.9972 19.1454 20.7264 19.7823 20.2302C20.4193 19.7339 20.8726 19.0405 21.0708 18.2591C21.269 17.4777 21.2009 16.6528 20.8771 15.9143C20.5533 15.1758 19.9923 14.5657 19.2825 14.1801Z" stroke="#B7C3CC" stroke-width="1.5" stroke-linecap="round" stroke-linejoin="round"/>
</svg>
