<svg width="22" height="24" viewBox="0 0 22 24" fill="none" xmlns="http://www.w3.org/2000/svg">
<path d="M1.11652 17.0756V6.92444C1.11731 6.77781 1.15675 6.63398 1.23086 6.50746C1.30497 6.38093 1.41113 6.27618 1.53863 6.20377L10.5985 1.10759C10.7206 1.03711 10.8591 1 11 1C11.141 1 11.2795 1.03711 11.4016 1.10759L20.4614 6.20377C20.5889 6.27618 20.6951 6.38093 20.7692 6.50746C20.8433 6.63398 20.8828 6.77781 20.8835 6.92444V17.0756C20.8828 17.2223 20.8433 17.3661 20.7692 17.4926C20.6951 17.6191 20.5889 17.7239 20.4614 17.7963L11.4016 22.8925C11.2795 22.963 11.141 23.0001 11 23.0001C10.8591 23.0001 10.7206 22.963 10.5985 22.8925L1.53863 17.7963C1.41113 17.7239 1.30497 17.6191 1.23086 17.4926C1.15675 17.3661 1.11731 17.2223 1.11652 17.0756V17.0756Z" stroke="#B7C3CC" stroke-width="1.5" stroke-linecap="round" stroke-linejoin="round"/>
<path d="M1.22974 6.50244L10.9073 12.0001L20.7703 6.50244" stroke="#B7C3CC" stroke-width="1.5" stroke-linecap="round" stroke-linejoin="round"/>
<path d="M10.9073 12L11 22.9954" stroke="#B7C3CC" stroke-width="1.5" stroke-linecap="round" stroke-linejoin="round"/>
<path d="M5.95526 3.7124L11 6.55391L16.0447 3.7124" stroke="#B7C3CC" stroke-width="1.5" stroke-linecap="round" stroke-linejoin="round"/>
<path d="M6.05835 20.3392V14.6665L1.11659 11.8867" stroke="#B7C3CC" stroke-width="1.5" stroke-linecap="round" stroke-linejoin="round"/>
<path d="M15.9418 20.3392V14.6665L20.8835 11.8867" stroke="#B7C3CC" stroke-width="1.5" stroke-linecap="round" stroke-linejoin="round"/>
</svg>
