<svg width="12" height="20" viewBox="0 0 12 20" fill="none" xmlns="http://www.w3.org/2000/svg">
<path d="M11.7091 9.2916L0.915121 0.124093C0.824256 0.0462496 0.720083 0.00348236 0.613348 0.000203807C0.506612 -0.00307474 0.401179 0.0332539 0.307925 0.105442C0.214671 0.177631 0.136972 0.283065 0.0828439 0.410869C0.0287155 0.538672 0.000117635 0.684218 0 0.832492V19.1675C0.000117635 19.3158 0.0287155 19.4613 0.0828439 19.5891C0.136972 19.7169 0.214671 19.8224 0.307925 19.8946C0.401179 19.9667 0.506612 20.0031 0.613348 19.9998C0.720083 19.9965 0.824256 19.9538 0.915121 19.8759L11.7091 10.7084C11.7977 10.6356 11.8711 10.532 11.9221 10.4078C11.9732 10.2836 12 10.143 12 10C12 9.85699 11.9732 9.71645 11.9221 9.59223C11.8711 9.46801 11.7977 9.3644 11.7091 9.2916Z" fill="#FB964B"/>
</svg>
