<svg width="47" height="33" viewBox="0 0 47 33" fill="none" xmlns="http://www.w3.org/2000/svg">
<path d="M37.3314 19.5208L30.262 26.5902C30.0693 26.7704 29.8359 26.9012 29.5816 26.9715C29.3273 27.0417 29.0598 27.0493 28.802 26.9936L17.6599 24.2081C17.4564 24.1514 17.2668 24.0533 17.1028 23.92L6.59473 15.7171L12.8573 3.94111L22.7123 1.05954C23.0625 0.959127 23.4369 0.98636 23.7689 1.13639L30.4157 4.15243H26.4391C26.2396 4.15173 26.0418 4.19039 25.8572 4.26621C25.6726 4.34203 25.5048 4.4535 25.3633 4.59427L17.8328 12.1056C17.6791 12.2634 17.5606 12.4521 17.4852 12.6592C17.4099 12.8663 17.3794 13.087 17.3957 13.3067C17.4121 13.5265 17.4749 13.7403 17.5801 13.9339C17.6852 14.1275 17.8303 14.2966 18.0057 14.43L19.0431 15.2176C20.1084 16.0128 21.4022 16.4423 22.7315 16.4423C24.0608 16.4423 25.3546 16.0128 26.4199 15.2176L28.8788 13.3734L37.3314 19.5208Z" fill="#FB964B"/>
<path d="M45.1501 13.5462L40.4052 15.9091L34.2578 4.15228L39.0604 1.75098C39.4173 1.56905 39.8317 1.53561 40.2132 1.65797C40.5946 1.78033 40.9122 2.04854 41.0967 2.40413L45.8225 11.4523C45.9183 11.6334 45.977 11.8318 45.995 12.036C46.013 12.2401 45.99 12.4457 45.9273 12.6408C45.8647 12.8359 45.7637 13.0165 45.6302 13.172C45.4967 13.3275 45.3335 13.4547 45.1501 13.5462V13.5462Z" stroke="#152E3F" stroke-width="2" stroke-linecap="round" stroke-linejoin="round"/>
<path d="M6.59472 15.7172L1.84974 13.3351C1.66704 13.2456 1.50421 13.1202 1.37093 12.9665C1.23765 12.8128 1.13665 12.6338 1.07392 12.4403C1.01119 12.2467 0.988029 12.0425 1.0058 11.8398C1.02357 11.6371 1.08192 11.4401 1.17737 11.2604L5.90314 2.2123C6.08801 1.85697 6.40429 1.58785 6.78464 1.46226C7.16499 1.33667 7.57934 1.36454 7.93945 1.53993L12.7421 3.94124L6.59472 15.7172Z" stroke="#152E3F" stroke-width="2" stroke-linecap="round" stroke-linejoin="round"/>
<path d="M40.4051 15.9089L37.3314 19.5205L30.262 26.5899C30.0693 26.7701 29.8359 26.9009 29.5816 26.9711C29.3273 27.0414 29.0598 27.049 28.802 26.9933L17.6599 24.2078C17.4564 24.1511 17.2668 24.053 17.1028 23.9197L6.59473 15.7168" stroke="#152E3F" stroke-width="2" stroke-linecap="round" stroke-linejoin="round"/>
<path d="M37.3314 19.5207L28.8788 13.3734L26.4198 15.2176C25.3545 16.0127 24.0608 16.4423 22.7314 16.4423C21.4021 16.4423 20.1084 16.0127 19.043 15.2176L18.0057 14.4299C17.8302 14.2966 17.6851 14.1275 17.58 13.9338C17.4748 13.7402 17.412 13.5264 17.3956 13.3067C17.3793 13.0869 17.4098 12.8662 17.4852 12.6591C17.5605 12.452 17.679 12.2633 17.8328 12.1055L25.3633 4.59419C25.5047 4.45343 25.6726 4.34195 25.8572 4.26614C26.0417 4.19032 26.2395 4.15165 26.439 4.15235H34.2577" stroke="#152E3F" stroke-width="2" stroke-linecap="round" stroke-linejoin="round"/>
<path d="M12.8574 3.94111L22.7124 1.05954C23.0625 0.959127 23.437 0.98636 23.769 1.13639L30.4158 4.15243" stroke="#152E3F" stroke-width="2" stroke-linecap="round" stroke-linejoin="round"/>
<path d="M20.4263 31.0474L14.644 29.5874C14.4083 29.5342 14.1902 29.4218 14.01 29.2609L9.66846 25.4956" stroke="#152E3F" stroke-width="2" stroke-linecap="round" stroke-linejoin="round"/>
</svg>
