<svg width="36" height="34" viewBox="0 0 36 34" fill="none" xmlns="http://www.w3.org/2000/svg">
<path d="M6 33V2.33333C6 1.97971 6.14048 1.64057 6.39052 1.39052C6.64057 1.14048 6.97971 1 7.33333 1H28.6667C29.0203 1 29.3594 1.14048 29.6095 1.39052C29.8595 1.64057 30 1.97971 30 2.33333V33H6Z" fill="#FB964B"/>
<path d="M1 33H35" stroke="#152E3F" stroke-width="2" stroke-linecap="round" stroke-linejoin="round"/>
<path d="M6 33V2.33333C6 1.97971 6.14048 1.64057 6.39052 1.39052C6.64057 1.14048 6.97971 1 7.33333 1H28.6667C29.0203 1 29.3594 1.14048 29.6095 1.39052C29.8595 1.64057 30 1.97971 30 2.33333V33" stroke="#152E3F" stroke-width="2" stroke-linecap="round" stroke-linejoin="round"/>
<path d="M23 19C24.1046 19 25 18.1046 25 17C25 15.8954 24.1046 15 23 15C21.8954 15 21 15.8954 21 17C21 18.1046 21.8954 19 23 19Z" fill="#152E3F"/>
</svg>
