<svg width="13" height="13" viewBox="0 0 13 13" fill="none" xmlns="http://www.w3.org/2000/svg">
<path d="M10.0153 2.47632C9.60557 2.47632 9.27637 2.80552 9.27637 3.20789C9.27637 3.61757 9.60557 3.94677 10.0153 3.94677C10.4249 3.94677 10.7541 3.61757 10.7541 3.20789C10.7468 2.80552 10.4176 2.47632 10.0153 2.47632Z" fill="white"/>
<path d="M6.74542 3.42041C5.04087 3.42041 3.6582 4.80308 3.6582 6.50763C3.6582 8.21219 5.04087 9.59485 6.74542 9.59485C8.44998 9.59485 9.83265 8.21219 9.83265 6.50763C9.83265 4.80308 8.44998 3.42041 6.74542 3.42041ZM6.74542 8.49018C5.65539 8.49018 4.77019 7.60498 4.77019 6.51495C4.77019 5.42491 5.65539 4.53971 6.74542 4.53971C7.83546 4.53971 8.72066 5.42491 8.72066 6.51495C8.72066 7.60498 7.83546 8.49018 6.74542 8.49018Z" fill="white"/>
<path d="M9.19631 12.7776H4.19238C2.11473 12.7776 0.424805 11.0877 0.424805 9.01004V4.0061C0.424805 1.92845 2.11473 0.238525 4.19238 0.238525H9.19631C11.274 0.238525 12.9639 1.92845 12.9639 4.0061V9.01004C12.9639 11.0877 11.274 12.7776 9.19631 12.7776ZM4.19238 1.41635C2.76582 1.41635 1.60263 2.57955 1.60263 4.0061V9.01004C1.60263 10.4366 2.76582 11.5998 4.19238 11.5998H9.19631C10.6229 11.5998 11.7861 10.4366 11.7861 9.01004V4.0061C11.7861 2.57955 10.6229 1.41635 9.19631 1.41635H4.19238Z" fill="white"/>
</svg>
