<svg width="28" height="28" viewBox="0 0 28 28" fill="none" xmlns="http://www.w3.org/2000/svg">
<path d="M26.6401 18.8022L20.0642 15.998C19.7249 15.8459 19.3524 15.7828 18.9819 15.8147C18.6115 15.8466 18.2553 15.9724 17.947 16.1802L14.4277 18.5217C12.2828 17.48 10.5462 15.7533 9.49227 13.6144L11.8198 10.053C12.0262 9.74438 12.1523 9.38907 12.1866 9.01933C12.2209 8.6496 12.1623 8.27716 12.0161 7.93583L9.19783 1.35995C9.00117 0.915919 8.66819 0.546075 8.24717 0.304051C7.82615 0.0620274 7.33898 -0.0395945 6.85631 0.0139226C4.96289 0.261961 3.22397 1.18913 1.96284 2.62305C0.701718 4.05696 0.00420963 5.90005 0 7.80964C0 18.9424 9.05762 28 20.1904 28C22.0999 27.9958 23.943 27.2983 25.377 26.0372C26.8109 24.776 27.738 23.0371 27.9861 21.1437C28.0396 20.661 27.938 20.1739 27.6959 19.7528C27.4539 19.3318 27.0841 18.9988 26.6401 18.8022Z" fill="#152E3F"/>
</svg>
