<svg width="16" height="22" viewBox="0 0 16 22" fill="none" xmlns="http://www.w3.org/2000/svg">
<path d="M7.99976 0.941208C5.89437 0.943585 3.87589 1.77705 2.38715 3.25876C0.898406 4.74047 0.0609822 6.74942 0.0585938 8.84487C0.0585938 15.6079 7.27784 20.7183 7.58466 20.9339C7.70762 21.0154 7.85204 21.0588 7.99976 21.0588C8.14749 21.0588 8.29191 21.0154 8.41487 20.9339C8.72169 20.7183 15.9409 15.6079 15.9409 8.84487C15.9385 6.74942 15.1011 4.74047 13.6124 3.25876C12.1236 1.77705 10.1052 0.943585 7.99976 0.941208ZM7.99976 5.97081C8.5709 5.97081 9.1292 6.13937 9.60408 6.45518C10.079 6.77098 10.4491 7.21985 10.6677 7.74502C10.8862 8.27018 10.9434 8.84806 10.832 9.40557C10.7206 9.96308 10.4455 10.4752 10.0417 10.8771C9.63782 11.2791 9.12329 11.5528 8.56313 11.6637C8.00297 11.7746 7.42235 11.7177 6.89469 11.5002C6.36703 11.2826 5.91604 10.9142 5.59873 10.4416C5.28143 9.96898 5.11207 9.41331 5.11207 8.84487C5.11207 8.08262 5.4163 7.35159 5.95785 6.8126C6.4994 6.27361 7.2339 5.97081 7.99976 5.97081Z" fill="#152E3F"/>
</svg>
