<svg width="252" height="56" viewBox="0 0 252 56" fill="none" xmlns="http://www.w3.org/2000/svg">
<path d="M69.22 36V14.7H73.36V32.37H84.22V36H69.22ZM90.4895 36.3C89.7295 36.3 89.0195 36.18 88.3595 35.94C87.6995 35.68 87.1295 35.33 86.6495 34.89C86.1695 34.43 85.7895 33.9 85.5095 33.3C85.2495 32.7 85.1195 32.04 85.1195 31.32C85.1195 30.58 85.2795 29.9 85.5995 29.28C85.9395 28.64 86.3995 28.1 86.9795 27.66C87.5795 27.22 88.2895 26.88 89.1095 26.64C89.9295 26.38 90.8295 26.25 91.8095 26.25C92.5095 26.25 93.1895 26.31 93.8495 26.43C94.5295 26.55 95.1295 26.72 95.6495 26.94V26.04C95.6495 25 95.3495 24.2 94.7495 23.64C94.1695 23.08 93.2995 22.8 92.1395 22.8C91.2995 22.8 90.4795 22.95 89.6795 23.25C88.8795 23.55 88.0595 23.99 87.2195 24.57L85.9895 22.02C88.0095 20.68 90.1895 20.01 92.5295 20.01C94.7895 20.01 96.5395 20.57 97.7795 21.69C99.0395 22.79 99.6695 24.39 99.6695 26.49V31.38C99.6695 31.8 99.7395 32.1 99.8795 32.28C100.04 32.46 100.29 32.56 100.63 32.58V36C99.9495 36.14 99.3595 36.21 98.8595 36.21C98.0995 36.21 97.5095 36.04 97.0895 35.7C96.6895 35.36 96.4395 34.91 96.3395 34.35L96.2495 33.48C95.5495 34.4 94.6995 35.1 93.6995 35.58C92.6995 36.06 91.6295 36.3 90.4895 36.3ZM91.6295 33.36C92.3095 33.36 92.9495 33.24 93.5495 33C94.1695 32.76 94.6495 32.44 94.9895 32.04C95.4295 31.7 95.6495 31.32 95.6495 30.9V29.1C95.1695 28.92 94.6495 28.78 94.0895 28.68C93.5295 28.56 92.9895 28.5 92.4695 28.5C91.4295 28.5 90.5795 28.74 89.9195 29.22C89.2595 29.68 88.9295 30.27 88.9295 30.99C88.9295 31.67 89.1895 32.24 89.7095 32.7C90.2295 33.14 90.8695 33.36 91.6295 33.36ZM117.886 36H113.866V27.18C113.866 25.92 113.646 25 113.206 24.42C112.766 23.84 112.156 23.55 111.376 23.55C110.976 23.55 110.566 23.63 110.146 23.79C109.726 23.95 109.326 24.18 108.946 24.48C108.586 24.76 108.256 25.1 107.956 25.5C107.656 25.9 107.436 26.34 107.296 26.82V36H103.276V20.28H106.906V23.19C107.486 22.19 108.326 21.41 109.426 20.85C110.526 20.29 111.766 20.01 113.146 20.01C114.126 20.01 114.926 20.19 115.546 20.55C116.166 20.91 116.646 21.38 116.986 21.96C117.326 22.54 117.556 23.2 117.676 23.94C117.816 24.68 117.886 25.43 117.886 26.19V36ZM127.742 36.3C126.662 36.3 125.662 36.09 124.742 35.67C123.822 35.25 123.032 34.67 122.372 33.93C121.712 33.19 121.192 32.33 120.812 31.35C120.452 30.35 120.272 29.28 120.272 28.14C120.272 27 120.442 25.94 120.782 24.96C121.142 23.98 121.632 23.12 122.252 22.38C122.872 21.64 123.612 21.06 124.472 20.64C125.332 20.22 126.272 20.01 127.292 20.01C128.452 20.01 129.492 20.29 130.412 20.85C131.352 21.41 132.082 22.14 132.602 23.04V14.1H136.622V31.38C136.622 31.8 136.692 32.1 136.832 32.28C136.972 32.46 137.212 32.56 137.552 32.58V36C136.852 36.14 136.282 36.21 135.842 36.21C135.122 36.21 134.532 36.03 134.072 35.67C133.612 35.31 133.352 34.84 133.292 34.26L133.202 33.27C132.622 34.27 131.832 35.03 130.832 35.55C129.852 36.05 128.822 36.3 127.742 36.3ZM128.792 32.88C129.172 32.88 129.562 32.82 129.962 32.7C130.362 32.56 130.732 32.37 131.072 32.13C131.412 31.89 131.712 31.61 131.972 31.29C132.252 30.97 132.462 30.62 132.602 30.24V26.49C132.442 26.05 132.212 25.65 131.912 25.29C131.632 24.91 131.302 24.59 130.922 24.33C130.562 24.05 130.172 23.83 129.752 23.67C129.352 23.51 128.952 23.43 128.552 23.43C127.952 23.43 127.392 23.56 126.872 23.82C126.372 24.08 125.942 24.44 125.582 24.9C125.222 25.34 124.942 25.85 124.742 26.43C124.542 27.01 124.442 27.61 124.442 28.23C124.442 28.89 124.552 29.5 124.772 30.06C124.992 30.62 125.292 31.11 125.672 31.53C126.052 31.95 126.502 32.28 127.022 32.52C127.562 32.76 128.152 32.88 128.792 32.88ZM158.718 14.7V36H154.608V26.91H144.948V36H140.808V14.7H144.948V23.31H154.608V14.7H158.718ZM169.676 36.3C168.396 36.3 167.246 36.08 166.226 35.64C165.206 35.2 164.336 34.61 163.616 33.87C162.916 33.11 162.376 32.24 161.996 31.26C161.616 30.28 161.426 29.25 161.426 28.17C161.426 27.07 161.616 26.03 161.996 25.05C162.376 24.07 162.916 23.21 163.616 22.47C164.336 21.71 165.206 21.11 166.226 20.67C167.246 20.23 168.396 20.01 169.676 20.01C170.956 20.01 172.096 20.23 173.096 20.67C174.116 21.11 174.976 21.71 175.676 22.47C176.396 23.21 176.946 24.07 177.326 25.05C177.706 26.03 177.896 27.07 177.896 28.17C177.896 29.25 177.706 30.28 177.326 31.26C176.946 32.24 176.406 33.11 175.706 33.87C175.006 34.61 174.146 35.2 173.126 35.64C172.106 36.08 170.956 36.3 169.676 36.3ZM165.566 28.17C165.566 28.87 165.666 29.51 165.866 30.09C166.086 30.65 166.376 31.14 166.736 31.56C167.116 31.98 167.556 32.31 168.056 32.55C168.556 32.77 169.096 32.88 169.676 32.88C170.256 32.88 170.796 32.77 171.296 32.55C171.796 32.31 172.226 31.98 172.586 31.56C172.966 31.14 173.256 30.64 173.456 30.06C173.676 29.48 173.786 28.84 173.786 28.14C173.786 27.46 173.676 26.83 173.456 26.25C173.256 25.67 172.966 25.17 172.586 24.75C172.226 24.33 171.796 24.01 171.296 23.79C170.796 23.55 170.256 23.43 169.676 23.43C169.096 23.43 168.556 23.55 168.056 23.79C167.556 24.03 167.116 24.36 166.736 24.78C166.376 25.2 166.086 25.7 165.866 26.28C165.666 26.86 165.566 27.49 165.566 28.17ZM180.429 14.1H184.449V30.96C184.449 31.54 184.589 31.99 184.869 32.31C185.149 32.63 185.549 32.79 186.069 32.79C186.309 32.79 186.569 32.75 186.849 32.67C187.149 32.59 187.429 32.49 187.689 32.37L188.229 35.43C187.689 35.69 187.059 35.89 186.339 36.03C185.619 36.17 184.969 36.24 184.389 36.24C183.129 36.24 182.149 35.91 181.449 35.25C180.769 34.57 180.429 33.61 180.429 32.37V14.1ZM196.341 36.3C195.261 36.3 194.261 36.09 193.341 35.67C192.421 35.25 191.631 34.67 190.971 33.93C190.311 33.19 189.791 32.33 189.411 31.35C189.051 30.35 188.871 29.28 188.871 28.14C188.871 27 189.041 25.94 189.381 24.96C189.741 23.98 190.231 23.12 190.851 22.38C191.471 21.64 192.211 21.06 193.071 20.64C193.931 20.22 194.871 20.01 195.891 20.01C197.051 20.01 198.091 20.29 199.011 20.85C199.951 21.41 200.681 22.14 201.201 23.04V14.1H205.221V31.38C205.221 31.8 205.291 32.1 205.431 32.28C205.571 32.46 205.811 32.56 206.151 32.58V36C205.451 36.14 204.881 36.21 204.441 36.21C203.721 36.21 203.131 36.03 202.671 35.67C202.211 35.31 201.951 34.84 201.891 34.26L201.801 33.27C201.221 34.27 200.431 35.03 199.431 35.55C198.451 36.05 197.421 36.3 196.341 36.3ZM197.391 32.88C197.771 32.88 198.161 32.82 198.561 32.7C198.961 32.56 199.331 32.37 199.671 32.13C200.011 31.89 200.311 31.61 200.571 31.29C200.851 30.97 201.061 30.62 201.201 30.24V26.49C201.041 26.05 200.811 25.65 200.511 25.29C200.231 24.91 199.901 24.59 199.521 24.33C199.161 24.05 198.771 23.83 198.351 23.67C197.951 23.51 197.551 23.43 197.151 23.43C196.551 23.43 195.991 23.56 195.471 23.82C194.971 24.08 194.541 24.44 194.181 24.9C193.821 25.34 193.541 25.85 193.341 26.43C193.141 27.01 193.041 27.61 193.041 28.23C193.041 28.89 193.151 29.5 193.371 30.06C193.591 30.62 193.891 31.11 194.271 31.53C194.651 31.95 195.101 32.28 195.621 32.52C196.161 32.76 196.751 32.88 197.391 32.88ZM216.307 36.3C215.047 36.3 213.907 36.09 212.887 35.67C211.867 35.23 210.997 34.64 210.277 33.9C209.557 33.16 208.997 32.3 208.597 31.32C208.217 30.34 208.027 29.31 208.027 28.23C208.027 27.11 208.217 26.06 208.597 25.08C208.977 24.08 209.527 23.21 210.247 22.47C210.967 21.71 211.837 21.11 212.857 20.67C213.897 20.23 215.057 20.01 216.337 20.01C217.617 20.01 218.757 20.23 219.757 20.67C220.777 21.11 221.637 21.7 222.337 22.44C223.057 23.18 223.597 24.04 223.957 25.02C224.337 26 224.527 27.02 224.527 28.08C224.527 28.34 224.517 28.59 224.497 28.83C224.497 29.07 224.477 29.27 224.437 29.43H212.287C212.347 30.05 212.497 30.6 212.737 31.08C212.977 31.56 213.287 31.97 213.667 32.31C214.047 32.65 214.477 32.91 214.957 33.09C215.437 33.27 215.937 33.36 216.457 33.36C217.257 33.36 218.007 33.17 218.707 32.79C219.427 32.39 219.917 31.87 220.177 31.23L223.627 32.19C223.047 33.39 222.117 34.38 220.837 35.16C219.577 35.92 218.067 36.3 216.307 36.3ZM220.387 26.82C220.287 25.64 219.847 24.7 219.067 24C218.307 23.28 217.377 22.92 216.277 22.92C215.737 22.92 215.227 23.02 214.747 23.22C214.287 23.4 213.877 23.66 213.517 24C213.157 24.34 212.857 24.75 212.617 25.23C212.397 25.71 212.267 26.24 212.227 26.82H220.387ZM236.186 23.76C234.966 23.78 233.876 24.02 232.916 24.48C231.956 24.92 231.266 25.59 230.846 26.49V36H226.826V20.28H230.516V23.64C230.796 23.1 231.126 22.62 231.506 22.2C231.886 21.76 232.296 21.38 232.736 21.06C233.176 20.74 233.616 20.5 234.056 20.34C234.516 20.16 234.956 20.07 235.376 20.07C235.596 20.07 235.756 20.07 235.856 20.07C235.976 20.07 236.086 20.08 236.186 20.1V23.76ZM244.217 36.3C242.897 36.3 241.607 36.09 240.347 35.67C239.087 35.25 238.007 34.65 237.107 33.87L238.607 31.35C239.567 32.03 240.497 32.55 241.397 32.91C242.317 33.25 243.227 33.42 244.127 33.42C244.927 33.42 245.557 33.27 246.017 32.97C246.477 32.67 246.707 32.24 246.707 31.68C246.707 31.12 246.437 30.71 245.897 30.45C245.357 30.19 244.477 29.89 243.257 29.55C242.237 29.27 241.367 29 240.647 28.74C239.927 28.48 239.347 28.19 238.907 27.87C238.467 27.53 238.147 27.15 237.947 26.73C237.747 26.29 237.647 25.77 237.647 25.17C237.647 24.37 237.797 23.65 238.097 23.01C238.417 22.37 238.857 21.83 239.417 21.39C239.977 20.93 240.627 20.58 241.367 20.34C242.127 20.1 242.947 19.98 243.827 19.98C245.007 19.98 246.107 20.15 247.127 20.49C248.167 20.83 249.117 21.38 249.977 22.14L248.357 24.57C247.557 23.97 246.777 23.53 246.017 23.25C245.277 22.97 244.537 22.83 243.797 22.83C243.117 22.83 242.547 22.97 242.087 23.25C241.627 23.53 241.397 23.98 241.397 24.6C241.397 24.88 241.447 25.11 241.547 25.29C241.667 25.47 241.847 25.63 242.087 25.77C242.327 25.91 242.637 26.05 243.017 26.19C243.417 26.31 243.907 26.44 244.487 26.58C245.567 26.86 246.487 27.14 247.247 27.42C248.027 27.7 248.657 28.02 249.137 28.38C249.637 28.74 249.997 29.16 250.217 29.64C250.457 30.1 250.577 30.66 250.577 31.32C250.577 32.86 250.007 34.08 248.867 34.98C247.727 35.86 246.177 36.3 244.217 36.3Z" fill="white"/>
<path d="M34.1916 13.3161C36.1253 10.0324 40.8747 10.0324 42.8084 13.3161L56.145 35.9628C58.1079 39.2959 55.7048 43.5 51.8366 43.5H25.1634C21.2953 43.5 18.8921 39.2959 20.855 35.9628L34.1916 13.3161Z" fill="white"/>
<path d="M20.7962 24.7843C18.8575 28.0404 14.1425 28.0404 12.2038 24.7843L6.7105 15.5579C4.72613 12.225 7.12778 8 11.0067 8L21.9933 8C25.8722 8 28.2739 12.225 26.2895 15.5579L20.7962 24.7843Z" fill="#FB964B"/>
</svg>
