<svg width="21" height="14" viewBox="0 0 21 14" fill="none" xmlns="http://www.w3.org/2000/svg">
<path d="M3 11V13.5" stroke="#B7C3CC" stroke-width="1.5"/>
<path d="M18 11V13.5" stroke="#B7C3CC" stroke-width="1.5"/>
<path d="M10.5 1.5V8" stroke="#B7C3CC" stroke-width="1.5"/>
<path d="M1.5 5.5V2C1.5 1.44772 1.94772 1 2.5 1H18.5C19.0523 1 19.5 1.44772 19.5 2V5.5" stroke="#B7C3CC" stroke-width="1.5"/>
<path d="M16.5 8H4.5C3.94772 8 3.5 7.55228 3.5 7V6C3.5 5.44772 3.05228 5 2.5 5H2C1.44772 5 1 5.44772 1 6V9.5C1 10.0523 1.44771 10.5 2 10.5H19C19.5523 10.5 20 10.0523 20 9.5V6C20 5.44772 19.5523 5 19 5H18.5C17.9477 5 17.5 5.44772 17.5 6V7C17.5 7.55228 17.0523 8 16.5 8Z" stroke="#B7C3CC" stroke-width="1.5"/>
</svg>
