<svg width="20" height="13" viewBox="0 0 20 13" fill="none" xmlns="http://www.w3.org/2000/svg">
<path d="M18.7273 0H1.27273C0.935179 0 0.611456 0.136964 0.372773 0.380761C0.134091 0.624558 0 0.955219 0 1.3V7.98571C0 8.3305 0.134091 8.66116 0.372773 8.90495C0.611456 9.14875 0.935179 9.28571 1.27273 9.28571H3.63636V12.4429C3.63636 12.5906 3.69383 12.7323 3.79612 12.8368C3.89842 12.9413 4.03715 13 4.18182 13C4.32648 13 4.46522 12.9413 4.56751 12.8368C4.66981 12.7323 4.72727 12.5906 4.72727 12.4429V9.28571H15.2727V12.4429C15.2727 12.5906 15.3302 12.7323 15.4325 12.8368C15.5348 12.9413 15.6735 13 15.8182 13C15.9628 13 16.1016 12.9413 16.2039 12.8368C16.3062 12.7323 16.3636 12.5906 16.3636 12.4429V9.28571H18.7273C19.0648 9.28571 19.3885 9.14875 19.6272 8.90495C19.8659 8.66116 20 8.3305 20 7.98571V1.3C20 0.955219 19.8659 0.624558 19.6272 0.380761C19.3885 0.136964 19.0648 0 18.7273 0ZM18.9091 1.3V6.26971L13.8618 1.11429H18.7273C18.7755 1.11429 18.8217 1.13385 18.8558 1.16868C18.8899 1.20351 18.9091 1.25075 18.9091 1.3ZM1.27273 1.11429H5.77455L12.6836 8.17143H7.68364L1.09091 1.44114V1.3C1.09091 1.25075 1.11006 1.20351 1.14416 1.16868C1.17826 1.13385 1.22451 1.11429 1.27273 1.11429ZM1.09091 7.98571V3.016L6.13818 8.17143H1.27273C1.22451 8.17143 1.17826 8.15186 1.14416 8.11703C1.11006 8.08221 1.09091 8.03497 1.09091 7.98571ZM18.7273 8.17143H14.2255L7.31636 1.11429H12.3164L18.9091 7.84457V7.98571C18.9091 8.03497 18.8899 8.08221 18.8558 8.11703C18.8217 8.15186 18.7755 8.17143 18.7273 8.17143Z" fill="#B7C3CC"/>
</svg>
