<svg xmlns="http://www.w3.org/2000/svg" xmlns:xlink="http://www.w3.org/1999/xlink" viewBox="0 0 730.72 150"><defs><style>.cls-1{fill:#00308f;}.cls-2{fill:url(#Gradiente_sem_nome_5);}</style><linearGradient id="Gradiente_sem_nome_5" y1="75" x2="150" y2="75" gradientUnits="userSpaceOnUse"><stop offset="0" stop-color="#007fff"/><stop offset="1" stop-color="#00308f"/></linearGradient></defs><g id="Camada_2" data-name="Camada 2"><g id="Camada_1-2" data-name="Camada 1"><path class="cls-1" d="M224.43,105a45.2,45.2,0,0,1-16.07-2.81,37.29,37.29,0,0,1-21.32-20A37,37,0,0,1,184,67a36.39,36.39,0,0,1,3.06-15,37.46,37.46,0,0,1,21.27-20,47.64,47.64,0,0,1,32.24,0A38.12,38.12,0,0,1,253.34,40a37,37,0,0,1,8.48,12A36.63,36.63,0,0,1,264.89,67a37.73,37.73,0,0,1-3,15.24,35.88,35.88,0,0,1-8.48,12,38.91,38.91,0,0,1-12.84,7.9A45,45,0,0,1,224.43,105Zm0-17.06a20.43,20.43,0,0,0,7.75-1.45,18,18,0,0,0,6.24-4.21,20,20,0,0,0,4.16-6.56,23.18,23.18,0,0,0,1.51-8.58,23.26,23.26,0,0,0-1.51-8.58A20,20,0,0,0,238.42,52a18,18,0,0,0-6.24-4.21,21.3,21.3,0,0,0-15.5,0A18.51,18.51,0,0,0,210.39,52a18.94,18.94,0,0,0-4.16,6.55,23.9,23.9,0,0,0-1.45,8.58,23.83,23.83,0,0,0,1.45,8.58,18.89,18.89,0,0,0,4.16,6.56,18.51,18.51,0,0,0,6.29,4.21A20.47,20.47,0,0,0,224.43,87.94Z"/><path class="cls-1" d="M286.2,103.54V30.75h17l30,49.5h-8.94l29.43-49.5h16.95l.1,72.79H351.83l-.21-44h3.22L332.9,96.37h-9.15L301.18,59.55h3.95v44Z"/><path class="cls-1" d="M395.92,103.54V30.75h37q14.46,0,21.53,5.3a16.43,16.43,0,0,1,7.07,13.73,17.13,17.13,0,0,1-2.91,9.88,19.2,19.2,0,0,1-8.32,6.65,31.1,31.1,0,0,1-12.69,2.39l2-5A35.37,35.37,0,0,1,453,66.05a19.66,19.66,0,0,1,8.94,6.81,18,18,0,0,1,3.17,10.72,16.88,16.88,0,0,1-7.64,14.66q-7.65,5.3-22.41,5.3ZM416.2,88.67h17.26c3.6,0,6.31-.61,8.11-1.82a7.07,7.07,0,0,0,0-11.13c-1.8-1.21-4.51-1.82-8.11-1.82H414.74V59.66h15.6q5.21,0,7.8-1.77a5.89,5.89,0,0,0,2.6-5.2,6,6,0,0,0-2.6-5.36q-2.59-1.71-7.8-1.71H416.2Z"/><path class="cls-1" d="M477.34,103.54l32.14-72.79h20.28L562,103.54H540.57L515.41,40.83h8.11l-25.17,62.71ZM494.92,89.3l5.3-15.08h35.57l5.3,15.08Z"/><path class="cls-1" d="M578.22,103.54V30.75h20.59V87.22h34.63v16.32Z"/><path class="cls-1" d="M643.32,103.54l32.13-72.79h20.28L728,103.54H706.55L681.38,40.83h8.11l-25.16,62.71ZM660.89,89.3l5.31-15.08h35.56l5.31,15.08Z"/><path class="cls-1" d="M371,131.13V122H367.5v-.92h8.13V122H372.1v9.13Z"/><path class="cls-1" d="M390.34,131.22a5.82,5.82,0,0,1-2.11-.38,4.94,4.94,0,0,1-2.78-2.7,5.38,5.38,0,0,1,0-4.07,4.94,4.94,0,0,1,2.78-2.7,6,6,0,0,1,4.2,0,5.13,5.13,0,0,1,1.68,1.07,4.84,4.84,0,0,1,1.1,1.63,5.05,5.05,0,0,1,.4,2,5.12,5.12,0,0,1-.4,2,4.9,4.9,0,0,1-1.1,1.62,5,5,0,0,1-1.68,1.07A5.71,5.71,0,0,1,390.34,131.22Zm0-.95A4.35,4.35,0,0,0,392,130a3.88,3.88,0,0,0,1.34-.87,4.17,4.17,0,0,0,.88-1.33,4.44,4.44,0,0,0,0-3.31,4.13,4.13,0,0,0-.88-1.32,4.05,4.05,0,0,0-1.34-.88,4.68,4.68,0,0,0-3.35,0,4,4,0,0,0-1.35.88,3.85,3.85,0,0,0-.89,1.32,4.24,4.24,0,0,0-.32,1.66,4.29,4.29,0,0,0,.32,1.65,3.89,3.89,0,0,0,.89,1.33,3.83,3.83,0,0,0,1.35.87A4.37,4.37,0,0,0,390.34,130.27Z"/><path class="cls-1" d="M406.61,131.13v-10h4.09a5.9,5.9,0,0,1,2.82.64,4.68,4.68,0,0,1,1.89,1.77,5.37,5.37,0,0,1,0,5.23,4.61,4.61,0,0,1-1.89,1.77,5.9,5.9,0,0,1-2.82.64Zm1.06-.92h3a4.8,4.8,0,0,0,2.31-.52,3.76,3.76,0,0,0,1.53-1.45,4.42,4.42,0,0,0,0-4.27,3.76,3.76,0,0,0-1.53-1.45,4.8,4.8,0,0,0-2.31-.52h-3Z"/><path class="cls-1" d="M431.48,131.22a5.8,5.8,0,0,1-2.1-.38,4.76,4.76,0,0,1-1.68-1.08,5.08,5.08,0,0,1-1.11-1.62,5.5,5.5,0,0,1,0-4.07,5.31,5.31,0,0,1,1.11-1.62,5.11,5.11,0,0,1,1.67-1.08,6,6,0,0,1,4.21,0,5.09,5.09,0,0,1,1.67,1.07,4.72,4.72,0,0,1,1.11,1.63,5.22,5.22,0,0,1,.39,2,5.29,5.29,0,0,1-.39,2,4.78,4.78,0,0,1-1.11,1.62,4.93,4.93,0,0,1-1.67,1.07A5.72,5.72,0,0,1,431.48,131.22Zm0-.95a4.41,4.41,0,0,0,1.68-.31,3.84,3.84,0,0,0,1.33-.87,4,4,0,0,0,.89-1.33,4.57,4.57,0,0,0,0-3.31,4.08,4.08,0,0,0-2.22-2.2,4.71,4.71,0,0,0-3.36,0,4.2,4.2,0,0,0-1.35.88,4,4,0,0,0-.89,1.32,4.23,4.23,0,0,0-.31,1.66,4.29,4.29,0,0,0,.31,1.65,4,4,0,0,0,2.24,2.2A4.44,4.44,0,0,0,431.48,130.27Z"/><path class="cls-1" d="M450.53,131.22a6.19,6.19,0,0,1-2.15-.37,4,4,0,0,1-1.59-.94l.42-.82a4,4,0,0,0,1.43.87,5,5,0,0,0,1.89.35,4.2,4.2,0,0,0,1.54-.23,1.89,1.89,0,0,0,.88-.64,1.59,1.59,0,0,0,.28-.89,1.36,1.36,0,0,0-.34-1A2.4,2.4,0,0,0,452,127a9.11,9.11,0,0,0-1.21-.36l-1.32-.34a5.74,5.74,0,0,1-1.22-.48,2.63,2.63,0,0,1-.89-.8,2.3,2.3,0,0,1-.33-1.3,2.54,2.54,0,0,1,.39-1.37,2.76,2.76,0,0,1,1.22-1,5,5,0,0,1,2.09-.38,6,6,0,0,1,1.68.24,5,5,0,0,1,1.44.65l-.36.85a4.59,4.59,0,0,0-1.37-.63,5.44,5.44,0,0,0-1.4-.2,4,4,0,0,0-1.5.24,1.85,1.85,0,0,0-.86.66,1.56,1.56,0,0,0-.28.92,1.34,1.34,0,0,0,.33,1,2.23,2.23,0,0,0,.89.56c.37.13.78.25,1.22.36s.87.22,1.31.34a6.25,6.25,0,0,1,1.21.49,2.4,2.4,0,0,1,.89.78,2.23,2.23,0,0,1,.33,1.28,2.42,2.42,0,0,1-.4,1.35,2.75,2.75,0,0,1-1.22,1A5.19,5.19,0,0,1,450.53,131.22Z"/><path class="cls-1" d="M477.58,131.13v-10h1.07v9.13h5.63v.92Z"/><path class="cls-1" d="M499.05,131.22a5.8,5.8,0,0,1-2.1-.38,4.76,4.76,0,0,1-1.68-1.08,5.08,5.08,0,0,1-1.11-1.62,5.5,5.5,0,0,1,0-4.07,5.31,5.31,0,0,1,1.11-1.62,5.11,5.11,0,0,1,1.67-1.08,6,6,0,0,1,4.21,0,5.09,5.09,0,0,1,1.67,1.07,4.72,4.72,0,0,1,1.11,1.63,5.23,5.23,0,0,1,.4,2,5.3,5.3,0,0,1-.4,2,4.78,4.78,0,0,1-1.11,1.62,4.93,4.93,0,0,1-1.67,1.07A5.72,5.72,0,0,1,499.05,131.22Zm0-.95a4.37,4.37,0,0,0,1.68-.31,3.84,3.84,0,0,0,1.33-.87,4,4,0,0,0,.89-1.33,4.57,4.57,0,0,0,0-3.31,4.08,4.08,0,0,0-2.22-2.2,4.37,4.37,0,0,0-1.68-.31,4.44,4.44,0,0,0-1.68.31,4.2,4.2,0,0,0-1.35.88,4,4,0,0,0-.89,1.32,4.23,4.23,0,0,0-.31,1.66,4.29,4.29,0,0,0,.31,1.65,4,4,0,0,0,2.24,2.2A4.44,4.44,0,0,0,499.05,130.27Z"/><path class="cls-1" d="M519.69,131.22a5.8,5.8,0,0,1-2.1-.38,4.93,4.93,0,0,1-2.76-2.69,5.29,5.29,0,0,1-.39-2,5.22,5.22,0,0,1,.39-2,4.72,4.72,0,0,1,1.11-1.63,5.09,5.09,0,0,1,1.67-1.07,5.72,5.72,0,0,1,2.1-.38,5.82,5.82,0,0,1,2,.37,4.06,4.06,0,0,1,1.62,1.1l-.67.67a3.78,3.78,0,0,0-1.37-.91,4.65,4.65,0,0,0-1.61-.28,4.44,4.44,0,0,0-1.68.31,4.2,4.2,0,0,0-1.35.88,4,4,0,0,0-.89,1.32,4.25,4.25,0,0,0,.89,4.64,4,4,0,0,0,1.35.87,4.44,4.44,0,0,0,1.68.31,4.23,4.23,0,0,0,1.61-.29,3.68,3.68,0,0,0,1.37-.92l.67.68a4.19,4.19,0,0,1-1.62,1.11A5.85,5.85,0,0,1,519.69,131.22Z"/><path class="cls-1" d="M532.66,131.13l4.6-10h1l4.6,10h-1.12l-4.22-9.43H538l-4.22,9.43Zm1.81-2.68.32-.86h5.84l.32.86Z"/><path class="cls-1" d="M553.18,131.13v-10h1.07v10Z"/><path class="cls-1" d="M568.91,131.22a6.23,6.23,0,0,1-2.15-.37,4.07,4.07,0,0,1-1.59-.94l.42-.82A4.14,4.14,0,0,0,567,130a5,5,0,0,0,1.89.35,4.17,4.17,0,0,0,1.54-.23,1.89,1.89,0,0,0,.88-.64,1.52,1.52,0,0,0,.28-.89,1.32,1.32,0,0,0-.34-1,2.32,2.32,0,0,0-.88-.57,9.11,9.11,0,0,0-1.21-.36l-1.32-.34a5.65,5.65,0,0,1-1.21-.48,2.46,2.46,0,0,1-.89-.8,2.22,2.22,0,0,1-.34-1.3,2.54,2.54,0,0,1,.39-1.37,2.82,2.82,0,0,1,1.22-1,5,5,0,0,1,2.09-.38,6,6,0,0,1,1.68.24,5,5,0,0,1,1.44.65l-.36.85a4.59,4.59,0,0,0-1.37-.63,5.38,5.38,0,0,0-1.4-.2,4,4,0,0,0-1.49.24,1.83,1.83,0,0,0-.87.66,1.56,1.56,0,0,0-.28.92,1.34,1.34,0,0,0,.33,1,2.3,2.3,0,0,0,.89.56c.37.13.78.25,1.22.36s.88.22,1.31.34a6.25,6.25,0,0,1,1.21.49,2.4,2.4,0,0,1,.89.78,2.23,2.23,0,0,1,.34,1.28,2.43,2.43,0,0,1-.41,1.35,2.7,2.7,0,0,1-1.22,1A5.16,5.16,0,0,1,568.91,131.22Z"/><path class="cls-1" d="M597,130.21h6v.92H596v-10h6.89V122H597Zm-.12-4.63h5.32v.9h-5.32Z"/><path class="cls-1" d="M614.19,131.13v-10h.88l4.59,7.84h-.46l4.56-7.84h.87v10h-1v-8.46h.25l-4.2,7.18h-.5l-4.22-7.18h.27v8.46Z"/><path class="cls-1" d="M653,131.22a4.09,4.09,0,0,1-3-1.11,4.42,4.42,0,0,1-1.1-3.27v-5.76h1.06v5.72a3.72,3.72,0,0,0,.8,2.62,3.48,3.48,0,0,0,4.56,0,3.72,3.72,0,0,0,.8-2.62v-5.72h1v5.76a4.45,4.45,0,0,1-1.09,3.27A4.08,4.08,0,0,1,653,131.22Z"/><path class="cls-1" d="M668.89,131.13v-10h.88l4.6,7.84h-.46l4.55-7.84h.87v10h-1v-8.46h.25l-4.19,7.18h-.51l-4.22-7.18h.27v8.46Z"/><path class="cls-1" d="M706.38,131.22a6.19,6.19,0,0,1-2.15-.37,4.07,4.07,0,0,1-1.59-.94l.42-.82a4,4,0,0,0,1.43.87,5,5,0,0,0,1.89.35,4.2,4.2,0,0,0,1.54-.23,1.89,1.89,0,0,0,.88-.64,1.59,1.59,0,0,0,.28-.89,1.36,1.36,0,0,0-.34-1,2.4,2.4,0,0,0-.88-.57,9.11,9.11,0,0,0-1.21-.36l-1.32-.34a5.45,5.45,0,0,1-1.21-.48,2.46,2.46,0,0,1-.89-.8,2.22,2.22,0,0,1-.34-1.3,2.54,2.54,0,0,1,.39-1.37,2.82,2.82,0,0,1,1.22-1,5,5,0,0,1,2.09-.38,6,6,0,0,1,1.68.24,5,5,0,0,1,1.44.65l-.36.85a4.59,4.59,0,0,0-1.37-.63,5.38,5.38,0,0,0-1.4-.2,4.06,4.06,0,0,0-1.5.24,1.85,1.85,0,0,0-.86.66,1.56,1.56,0,0,0-.28.92,1.34,1.34,0,0,0,.33,1,2.23,2.23,0,0,0,.89.56c.37.13.78.25,1.22.36s.88.22,1.31.34a6.25,6.25,0,0,1,1.21.49,2.4,2.4,0,0,1,.89.78,2.23,2.23,0,0,1,.34,1.28,2.43,2.43,0,0,1-.41,1.35,2.7,2.7,0,0,1-1.22,1A5.19,5.19,0,0,1,706.38,131.22Z"/><path class="cls-1" d="M725.45,131.22a5.72,5.72,0,0,1-2.1-.38,5,5,0,0,1-2.79-2.7,5.38,5.38,0,0,1,0-4.07,5,5,0,0,1,1.11-1.62,5.11,5.11,0,0,1,1.67-1.08,6,6,0,0,1,4.21,0,5.09,5.09,0,0,1,1.67,1.07,5,5,0,0,1,1.11,1.63,5.22,5.22,0,0,1,.39,2,5.29,5.29,0,0,1-.39,2,5.08,5.08,0,0,1-1.11,1.62,4.93,4.93,0,0,1-1.67,1.07A5.76,5.76,0,0,1,725.45,131.22Zm0-.95a4.35,4.35,0,0,0,1.67-.31,3.88,3.88,0,0,0,1.34-.87,4,4,0,0,0,.88-1.33,4.44,4.44,0,0,0,0-3.31,4,4,0,0,0-.88-1.32,4.05,4.05,0,0,0-1.34-.88,4.35,4.35,0,0,0-1.67-.31,4.44,4.44,0,0,0-1.68.31,4,4,0,0,0-2.24,2.2,4.24,4.24,0,0,0-.32,1.66,4.29,4.29,0,0,0,.32,1.65,4,4,0,0,0,.89,1.33,3.83,3.83,0,0,0,1.35.87A4.44,4.44,0,0,0,725.45,130.27Zm-.93-10,2-1.78h1.37l-2.33,1.78Z"/><polygon class="cls-2" points="150 0 150 150 0 150 0 103.81 24.84 103.81 24.84 124.67 49.66 124.67 49.66 72.03 24.84 49.67 75.57 49.67 99.34 71.07 99.34 124.67 124.67 124.67 124.67 24.84 24.84 24.84 24.84 49.59 14.68 58.42 0 71.18 0 0 150 0"/></g></g></svg>