<svg width="62" height="15" viewBox="0 0 62 15" fill="none" xmlns="http://www.w3.org/2000/svg">
<path d="M59.7981 15C59.2037 15 58.7151 14.8136 58.3321 14.4409C57.9622 14.0538 57.7773 13.5806 57.7773 13.0215C57.7773 12.448 57.9622 11.9677 58.3321 11.5806C58.7151 11.1935 59.2037 11 59.7981 11C60.3792 11 60.8547 11.1935 61.2245 11.5806C61.6075 11.9677 61.799 12.448 61.799 13.0215C61.799 13.5806 61.6075 14.0538 61.2245 14.4409C60.8547 14.8136 60.3792 15 59.7981 15Z" fill="black"/>
<path d="M43.418 9.23231C43.418 8.11081 43.6388 7.11615 44.0803 6.24833C44.5353 5.38051 45.1508 4.71295 45.9269 4.24566C46.703 3.77837 47.5661 3.54473 48.5162 3.54473C49.2387 3.54473 49.9279 3.70494 50.5835 4.02537C51.2392 4.33244 51.7611 4.74633 52.1491 5.26702V0H54.9993V14.8198H52.1491V13.1776C51.8012 13.725 51.3128 14.1656 50.6839 14.4993C50.055 14.8331 49.3257 15 48.4961 15C47.5594 15 46.703 14.7597 45.9269 14.279C45.1508 13.7984 44.5353 13.1242 44.0803 12.2563C43.6388 11.3752 43.418 10.3672 43.418 9.23231ZM52.1692 9.27236C52.1692 8.59145 52.0354 8.01068 51.7678 7.53004C51.5002 7.03605 51.1389 6.66222 50.6839 6.40854C50.2289 6.14152 49.7405 6.00801 49.2187 6.00801C48.6968 6.00801 48.2151 6.13485 47.7735 6.38852C47.3319 6.64219 46.9707 7.01602 46.6896 7.51001C46.422 7.99065 46.2882 8.56475 46.2882 9.23231C46.2882 9.89987 46.422 10.4873 46.6896 10.9947C46.9707 11.4887 47.3319 11.8692 47.7735 12.1362C48.2285 12.4032 48.7102 12.5367 49.2187 12.5367C49.7405 12.5367 50.2289 12.4099 50.6839 12.1562C51.1389 11.8892 51.5002 11.5154 51.7678 11.0347C52.0354 10.5407 52.1692 9.95327 52.1692 9.27236Z" fill="black"/>
<path d="M37.0331 3.5647C38.3578 3.5647 39.4283 3.98526 40.2446 4.82638C41.0608 5.65415 41.4689 6.8157 41.4689 8.31103V14.8197H38.6589V8.69153C38.6589 7.81036 38.4381 7.13613 37.9965 6.66884C37.555 6.1882 36.9528 5.94787 36.1901 5.94787C35.414 5.94787 34.7984 6.1882 34.3435 6.66884C33.9019 7.13613 33.6811 7.81036 33.6811 8.69153V14.8197H30.8711V3.72491H33.6811V5.10675C34.0558 4.62611 34.5308 4.25228 35.1062 3.98526C35.695 3.70488 36.3373 3.5647 37.0331 3.5647Z" fill="black"/>
<path d="M28.8192 9.03199C28.8192 9.43253 28.7925 9.79301 28.739 10.1134H20.6099C20.6768 10.9145 20.9578 11.542 21.4529 11.9959C21.948 12.4499 22.5569 12.6769 23.2795 12.6769C24.3232 12.6769 25.0658 12.2296 25.5074 11.3351H28.5382C28.2171 12.4032 27.6016 13.2843 26.6916 13.9786C25.7817 14.6595 24.6644 15 23.3397 15C22.2692 15 21.3058 14.7663 20.4494 14.299C19.6064 13.8184 18.944 13.1441 18.4623 12.2763C17.9939 11.4085 17.7598 10.4072 17.7598 9.27231C17.7598 8.12412 17.9939 7.11611 18.4623 6.24828C18.9306 5.38046 19.5863 4.7129 20.4293 4.24561C21.2723 3.77832 22.2424 3.54468 23.3397 3.54468C24.3968 3.54468 25.3402 3.77165 26.1698 4.22558C27.0128 4.67952 27.6618 5.32705 28.1167 6.16818C28.5851 6.99595 28.8192 7.95055 28.8192 9.03199ZM25.9089 8.23093C25.8955 7.50996 25.6345 6.93587 25.1261 6.50863C24.6176 6.06804 23.9954 5.84775 23.2594 5.84775C22.5636 5.84775 21.9748 6.06137 21.4931 6.4886C21.0248 6.90249 20.7371 7.48326 20.63 8.23093H25.9089Z" fill="black"/>
<path d="M15.7085 0V14.8198H12.8984V0H15.7085Z" fill="black"/>
<path d="M7.94837 7.65014C8.73786 7.79701 9.38684 8.19086 9.89532 8.83172C10.4038 9.47257 10.658 10.2069 10.658 11.0347C10.658 11.7823 10.4707 12.4432 10.096 13.0173C9.73475 13.578 9.2062 14.0186 8.51038 14.3391C7.81456 14.6595 6.99162 14.8197 6.04157 14.8197H0V0.841064H5.78063C6.73069 0.841064 7.54694 0.994602 8.22938 1.30168C8.92519 1.60875 9.44706 2.03599 9.79496 2.58339C10.1563 3.13078 10.3369 3.75161 10.3369 4.44587C10.3369 5.26029 10.1161 5.9412 9.67453 6.48859C9.24634 7.03599 8.67095 7.42317 7.94837 7.65014ZM2.81003 6.60875H5.3792C6.04826 6.60875 6.56343 6.46189 6.92472 6.16817C7.28601 5.86109 7.46665 5.42718 7.46665 4.86643C7.46665 4.30568 7.28601 3.87177 6.92472 3.5647C6.56343 3.25762 6.04826 3.10408 5.3792 3.10408H2.81003V6.60875ZM5.64013 12.5367C6.32257 12.5367 6.85112 12.3764 7.22579 12.056C7.61384 11.7356 7.80787 11.2817 7.80787 10.6942C7.80787 10.0934 7.60715 9.62611 7.20572 9.29233C6.80429 8.9452 6.26235 8.77164 5.57992 8.77164H2.81003V12.5367H5.64013Z" fill="black"/>
</svg>
