<svg width="109" height="109" viewBox="0 0 109 109" fill="none" xmlns="http://www.w3.org/2000/svg">
<circle cx="54.5" cy="54.5" r="54.5" fill="black"/>
<path d="M53.8746 19.2377C53.736 19.2384 53.6184 19.191 53.5219 19.0954C53.4255 18.9999 53.3769 18.8828 53.3762 18.7442C53.3755 18.6055 53.4229 18.4879 53.5185 18.3915C53.614 18.295 53.7311 18.2464 53.8698 18.2457C54.0031 18.2451 54.1153 18.2925 54.2065 18.3881C54.3029 18.4836 54.3515 18.6007 54.3522 18.7394C54.3529 18.8781 54.3054 18.9956 54.2099 19.0921C54.1197 19.1885 54.0079 19.2371 53.8746 19.2377Z" fill="white"/>
<path d="M49.4936 19.528L46.8522 17.3443L47.222 19.8613L46.5017 19.967L45.6912 14.4502L46.4114 14.3445L46.7871 16.9011L48.691 14.0101L49.6013 13.8765L47.5059 17.0058L50.4356 19.3898L49.4936 19.528Z" fill="white"/>
<path d="M42.1846 21.3661L40.1445 19.692L39.3196 19.9985L40.1149 22.1353L39.4325 22.389L37.4875 17.1632L39.1748 16.5361C39.5697 16.3893 39.9273 16.3332 40.2475 16.3678C40.5726 16.4006 40.8455 16.5068 41.0661 16.6866C41.2866 16.8663 41.4518 17.1037 41.5615 17.3986C41.6955 17.7585 41.7086 18.1149 41.601 18.4678C41.4983 18.8189 41.2563 19.1166 40.8748 19.3608L43.0019 21.0623L42.1846 21.3661ZM39.1159 19.4512L40.1207 19.0777C40.4907 18.9402 40.7347 18.7471 40.8527 18.4985C40.9688 18.2448 40.9701 17.9655 40.8566 17.6606C40.7413 17.3507 40.5595 17.1451 40.3113 17.0439C40.0681 16.9409 39.759 16.959 39.3841 17.0984L38.3792 17.4719L39.1159 19.4512Z" fill="white"/>
<path d="M33.4446 26.1232C33.0172 26.4148 32.5597 26.5818 32.0718 26.6241C31.581 26.662 31.1102 26.5733 30.6594 26.3579C30.21 26.1351 29.8319 25.7992 29.5249 25.35C29.218 24.9009 29.044 24.4288 29.0029 23.9339C28.9632 23.4315 29.0519 22.961 29.2689 22.5223C29.4829 22.0793 29.8036 21.7119 30.2309 21.4203C30.6626 21.1257 31.1239 20.9594 31.6148 20.9215C32.1026 20.8792 32.5697 20.9672 33.0161 21.1856C33.4625 21.404 33.8406 21.7399 34.1505 22.1935C34.4605 22.647 34.636 23.1213 34.6771 23.6163C34.7182 24.1112 34.6317 24.5802 34.4177 25.0233C34.2007 25.4619 33.8763 25.8286 33.4446 26.1232ZM33.088 25.6014C33.4096 25.3819 33.647 25.1102 33.8002 24.7861C33.9578 24.459 34.0145 24.1071 33.9703 23.7305C33.9305 23.3509 33.7857 22.9783 33.536 22.6129C33.2832 22.243 32.9887 21.9726 32.6523 21.8018C32.3174 21.6236 31.971 21.5468 31.6132 21.5715C31.2554 21.5961 30.9135 21.7197 30.5875 21.9421C30.2615 22.1646 30.0219 22.4379 29.8687 22.7619C29.7155 23.086 29.6588 23.4379 29.6986 23.8175C29.7398 24.1897 29.8867 24.5608 30.1395 24.9307C30.3892 25.2961 30.6816 25.568 31.0165 25.7462C31.3559 25.9214 31.7045 25.9967 32.0623 25.972C32.4245 25.9444 32.7664 25.8208 33.088 25.6014Z" fill="white"/>
<path d="M23.5108 27.6483L26.9071 32.3554L26.404 32.9978L22.0696 31.2537L24.7764 35.0764L24.2846 35.7175L18.924 33.5061L19.4024 32.8952L23.8766 34.8501L20.9807 30.8795L21.4837 30.2371L25.9848 32.1318L23.0275 28.2655L23.5108 27.6483Z" fill="white"/>
<path d="M15.1128 43.1064L20.1737 45.9499L19.9876 46.7444L15.322 46.984L19.3855 49.3148L19.209 50.1033L13.416 50.3504L13.593 49.5948L18.474 49.4877L14.1768 47.1023L14.3629 46.3078L19.243 46.1348L14.934 43.8698L15.1128 43.1064Z" fill="white"/>
<path d="M14.2267 57.1944L16.0898 57.1389L16.0286 55.1078L16.6284 55.0899L16.6896 57.121L18.6087 57.0638L18.5403 54.7928L19.14 54.7749L19.2304 57.7736L13.6489 57.94L13.5585 54.9413L14.1582 54.9234L14.2267 57.1944Z" fill="white"/>
<path d="M14.1094 61.0506L19.6124 60.1513L19.73 60.8698L14.227 61.7691L14.1094 61.0506Z" fill="white"/>
<path d="M15.2488 66.0499L21.205 66.2777L21.4716 67.0743L16.8508 70.8369L16.6045 70.101L20.6086 66.9157L15.4925 66.7782L15.2488 66.0499Z" fill="white"/>
<path d="M24.9552 73.683C25.03 73.7997 25.053 73.9243 25.0239 74.0569C24.9949 74.1895 24.922 74.2932 24.8053 74.368C24.6885 74.4428 24.5638 74.4657 24.4311 74.4367C24.2985 74.4076 24.1947 74.3348 24.1198 74.218C24.0478 74.1058 24.0278 73.9856 24.0597 73.8575C24.0887 73.725 24.1616 73.6213 24.2783 73.5465C24.3951 73.4717 24.5198 73.4488 24.6525 73.4778C24.7823 73.5024 24.8832 73.5707 24.9552 73.683Z" fill="white"/>
<path d="M27.5397 77.2236L27.1101 80.6223L29.0384 78.963L29.5137 79.5145L25.287 83.1515L24.8118 82.6L26.7705 80.9145L23.3079 80.8545L22.7073 80.1576L26.4738 80.2516L26.9183 76.5024L27.5397 77.2236Z" fill="white"/>
<path d="M33.0105 82.4072L32.6886 85.0252L33.3895 85.5573L34.7692 83.7421L35.3491 84.1823L31.9749 88.6215L30.5411 87.5332C30.2055 87.2784 29.9666 87.0067 29.8243 86.7179C29.6778 86.4259 29.6215 86.1387 29.6552 85.8564C29.689 85.574 29.8011 85.3075 29.9915 85.057C30.2239 84.7513 30.518 84.5494 30.8739 84.4513C31.2256 84.35 31.6068 84.3949 32.0175 84.5861L32.316 81.8799L33.0105 82.4072ZM33.0361 86.0222L32.1823 85.3741C31.8679 85.1355 31.574 85.0329 31.3007 85.0665C31.0241 85.1043 30.7873 85.2527 30.5905 85.5117C30.3904 85.7749 30.3141 86.0384 30.3615 86.3021C30.4047 86.5625 30.5856 86.8137 30.9042 87.0555L31.7581 87.7037L33.0361 86.0222Z" fill="white"/>
<path d="M41.7166 87.2361C42.1918 87.4406 42.5779 87.7373 42.8749 88.1264C43.1697 88.5203 43.3468 88.9652 43.4062 89.461C43.4585 89.9596 43.377 90.4587 43.1618 90.9583C42.9465 91.4579 42.6408 91.8576 42.2445 92.1574C41.8412 92.46 41.3961 92.6372 40.9092 92.689C40.4202 92.7456 39.9381 92.6718 39.4629 92.4673C38.9828 92.2607 38.5953 91.9605 38.3004 91.5666C38.0034 91.1775 37.8277 90.7362 37.7733 90.2424C37.7189 89.7487 37.8003 89.2496 38.0177 88.7451C38.235 88.2406 38.5418 87.8385 38.9381 87.5387C39.3344 87.2389 39.7771 87.0607 40.2661 87.004C40.753 86.9522 41.2365 87.0296 41.7166 87.2361ZM41.4665 87.8166C41.1089 87.6627 40.7521 87.6079 40.3962 87.6522C40.0354 87.6944 39.7077 87.835 39.4131 88.074C39.1136 88.3109 38.8762 88.6326 38.7011 89.0392C38.5238 89.4506 38.4531 89.844 38.4888 90.2194C38.5175 90.5975 38.6381 90.931 38.8505 91.2197C39.0629 91.5085 39.3504 91.7309 39.7129 91.8869C40.0755 92.0429 40.4347 92.0987 40.7906 92.0544C41.1465 92.0101 41.4742 91.8695 41.7737 91.6326C42.0662 91.3985 42.3011 91.0757 42.4783 90.6643C42.6535 90.2577 42.7267 89.8654 42.698 89.4872C42.6643 89.107 42.5413 88.7725 42.3289 88.4837C42.1116 88.1928 41.8242 87.9704 41.4665 87.8166Z" fill="white"/>
<path d="M48.3275 94.8018L50.4863 89.4124L51.2983 89.4929L52.1448 94.0867L53.9255 89.7532L54.7303 89.825L55.7312 95.5355L54.959 95.459L54.2159 90.6342L52.4115 95.2065L51.5995 95.126L50.7911 90.3108L49.1077 94.8791L48.3275 94.8018Z" fill="white"/>
<path d="M65.8886 93.6064L65.5795 87.8099L66.3501 87.5416L69.0513 91.3535L68.8434 86.6738L69.6039 86.4006L72.9151 91.1606L72.1822 91.4157L69.4776 87.3509L69.7645 92.2573L68.9938 92.5256L66.2341 88.4969L66.629 93.3487L65.8886 93.6064Z" fill="white"/>
<path d="M78.2614 86.8118L77.216 85.2685L75.533 86.4071L75.1965 85.9103L76.8795 84.7718L75.8027 83.1821L73.9209 84.4552L73.5844 83.9584L76.0692 82.2775L79.2009 86.9006L76.7161 88.5816L76.3796 88.0848L78.2614 86.8118Z" fill="white"/>
<path d="M81.5838 84.8429L77.8755 80.6787L78.4195 80.1949L82.1278 84.3591L81.5838 84.8429Z" fill="white"/>
<path d="M85.2072 81.213L82.209 76.0639L82.7393 75.4125L88.3942 77.2983L87.9043 77.9001L83.0675 76.2258L85.6921 80.6175L85.2072 81.213Z" fill="white"/>
<path d="M86.4548 68.935C86.5133 68.8093 86.6064 68.7232 86.734 68.6766C86.8616 68.6301 86.9882 68.6361 87.1139 68.6946C87.2397 68.7531 87.3258 68.8461 87.3723 68.9736C87.4188 69.1011 87.4128 69.2277 87.3542 69.3534C87.2979 69.4743 87.2071 69.5555 87.0818 69.5972C86.9542 69.6438 86.8275 69.6378 86.7018 69.5793C86.5761 69.5208 86.49 69.4278 86.4435 69.3003C86.3947 69.1776 86.3985 69.0558 86.4548 68.935Z" fill="white"/>
<path d="M88.058 64.8548L91.1599 63.3966L88.7255 62.658L88.9372 61.9614L94.2729 63.5804L94.0613 64.277L91.5886 63.5267L93.3915 66.4815L93.124 67.3617L91.1872 64.1323L87.7813 65.7657L88.058 64.8548Z" fill="white"/>
<path d="M89.5143 57.4628L91.8984 56.3318L91.9727 55.455L89.7008 55.2627L89.7623 54.5373L95.3184 55.0075L95.1664 56.8011C95.1308 57.2209 95.0291 57.5683 94.8613 57.8431C94.6931 58.1232 94.4806 58.3247 94.224 58.4475C93.9674 58.5703 93.6823 58.6184 93.3688 58.5919C92.9861 58.5595 92.6581 58.4193 92.3847 58.1714C92.1109 57.9288 91.9449 57.5829 91.8866 57.1337L89.4407 58.3317L89.5143 57.4628ZM92.5546 55.5042L92.4641 56.5724C92.4307 56.9657 92.5014 57.2687 92.676 57.4815C92.856 57.6948 93.1081 57.8151 93.4323 57.8426C93.7617 57.8705 94.0252 57.7937 94.2225 57.6124C94.4194 57.4364 94.5348 57.1491 94.5685 56.7505L94.6591 55.6823L92.5546 55.5042Z" fill="white"/>
<path d="M88.9351 47.5295C88.8534 47.0187 88.8973 46.5337 89.0669 46.0745C89.2417 45.6145 89.5226 45.2266 89.9096 44.911C90.3027 44.5997 90.7678 44.4011 91.305 44.3153C91.8422 44.2294 92.3435 44.2736 92.8088 44.4476C93.2803 44.6261 93.6682 44.9071 93.9726 45.2906C94.2823 45.6731 94.478 46.1199 94.5598 46.6307C94.6423 47.1468 94.5962 47.6349 94.4214 48.0949C94.2518 48.5541 93.9731 48.9389 93.5853 49.2493C93.1975 49.5597 92.7323 49.7583 92.1899 49.8449C91.6474 49.9316 91.1435 49.8879 90.6782 49.7138C90.2128 49.5398 89.8253 49.2614 89.5156 48.8788C89.2112 48.4954 89.0177 48.0456 88.9351 47.5295ZM89.5592 47.4298C89.6207 47.8142 89.7655 48.1449 89.9934 48.4217C90.2222 48.7038 90.5164 48.9052 90.876 49.026C91.2364 49.152 91.6352 49.1801 92.0723 49.1103C92.5147 49.0396 92.8848 48.8886 93.1827 48.6574C93.4867 48.4306 93.7038 48.1501 93.8339 47.8161C93.9641 47.482 93.998 47.1201 93.9357 46.7304C93.8733 46.3407 93.7282 46.0074 93.5002 45.7306C93.2723 45.4538 92.9781 45.2523 92.6176 45.1263C92.2633 45.0047 91.8649 44.9792 91.4226 45.0499C90.9854 45.1198 90.6149 45.2681 90.3109 45.4949C90.0078 45.727 89.7911 46.0101 89.6609 46.3441C89.5316 46.6835 89.4977 47.0454 89.5592 47.4298Z" fill="white"/>
<path d="M91.7902 37.9006L86.0819 38.9627L85.7149 38.2339L89.1414 35.0599L84.5274 35.876L84.1568 35.1579L88.4438 31.2557L88.7928 31.9488L85.1159 35.1592L89.9443 34.2352L90.3113 34.964L86.6774 38.2244L91.4376 37.2004L91.7902 37.9006Z" fill="white"/>
<path d="M81.3729 23.718L76.6402 27.0819L76.0007 26.5751L77.7749 22.2547L73.9316 24.9354L73.2934 24.4398L75.5421 19.0969L76.1502 19.5788L74.1641 24.0376L78.1566 21.1689L78.7961 21.6757L76.8701 26.1617L80.7585 23.231L81.3729 23.718Z" fill="white"/>
<path d="M68.9976 16.9106L68.2531 18.6195L70.1165 19.4301L69.8768 19.9802L68.0135 19.1695L67.2467 20.9298L69.3301 21.8361L69.0904 22.3862L66.3395 21.1894L68.5697 16.0701L71.3206 17.2669L71.081 17.817L68.9976 16.9106Z" fill="white"/>
<path d="M65.5624 15.166L64.0287 20.5269L63.3287 20.327L64.8624 14.966L65.5624 15.166Z" fill="white"/>
<path d="M60.5516 14.0539L57.8062 19.344L56.972 19.2453L55.5386 13.4608L56.3092 13.552L57.4834 18.5324L59.7889 13.9637L60.5516 14.0539Z" fill="white"/>
</svg>
