<svg width="42" height="40" viewBox="0 0 42 40" fill="none" xmlns="http://www.w3.org/2000/svg">
<path d="M36.036 0L40.152 5.27197C38.584 6.72245 37.072 8.95397 35.616 11.9665C34.216 14.9233 33.46 18.6611 33.348 23.1799L42 24.2678V40H25.2V32.5523C25.2 31.8828 25.228 30.4881 25.284 28.3682C25.34 26.1925 25.396 24.742 25.452 24.0167C25.508 23.2357 25.592 21.9247 25.704 20.0837C25.816 18.2427 25.984 16.9038 26.208 16.0669C26.432 15.2301 26.712 14.0586 27.048 12.5523C27.384 11.046 27.804 9.84658 28.308 8.95397C28.868 8.06137 29.484 7.02929 30.156 5.85774C30.884 4.68619 31.724 3.65411 32.676 2.76151C33.684 1.81311 34.804 0.892608 36.036 0ZM11.34 0L15.456 5.27197C13.888 6.72245 12.376 8.95397 10.92 11.9665C9.52 14.9233 8.764 18.6332 8.652 23.0962L16.8 24.2678V40H0V32.5523C0 29.1492 0.028 26.5551 0.084 24.7699C0.14 22.9847 0.364 20.6973 0.756 17.9079C1.148 15.0628 1.708 12.7476 2.436 10.9623C3.22 9.17713 4.34 7.28033 5.796 5.27197C7.308 3.2636 9.156 1.50628 11.34 0Z" fill="black"/>
</svg>
