<svg width="124" height="27" viewBox="0 0 124 27" fill="none" xmlns="http://www.w3.org/2000/svg">
<path d="M22.2682 8.74242C22.0157 8.75644 21.8334 8.7845 21.651 8.7845C19.1404 8.7845 16.6297 8.81255 14.1191 8.7845C9.46243 8.72839 5.74554 5.09566 5.7736 0.565264C5.94191 0.551238 6.11022 0.50916 6.27853 0.50916C8.92944 0.50916 11.5804 0.481108 14.2172 0.523186C18.4811 0.593316 22.0718 4.04371 22.2682 8.19541C22.2822 8.34969 22.2682 8.50398 22.2682 8.74242Z" fill="black"/>
<path d="M2.43366 4.68872C6.29081 8.54587 10.162 12.417 14.0752 16.3303C11.8872 18.35 9.3625 19.1495 6.5012 18.5043C3.17704 17.7609 1.05911 15.657 0.217552 12.3469C-0.469722 9.52769 0.526124 6.17548 2.43366 4.68872Z" fill="black"/>
<path d="M14.0879 26.1623C14.0879 20.6501 14.0879 15.1799 14.0879 9.70978C17.2437 9.42926 22.0126 12.2064 22.2931 17.5082C22.5315 22.1368 18.7585 26.1763 14.0879 26.1623Z" fill="black"/>
<path d="M36.3915 22.1333C35.1218 21.4127 34.1781 20.2974 33.5433 18.839C32.9085 17.3806 32.5996 15.5276 32.5996 13.3142C32.5996 11.118 32.9085 9.28211 33.5433 7.82369C34.161 6.36528 35.1047 5.25002 36.3572 4.51223C37.6097 3.77444 39.1539 3.39697 40.9898 3.39697C42.6026 3.39697 44.0267 3.65434 45.2449 4.18623C46.4631 4.71813 47.4411 5.47307 48.1274 6.45107C48.8138 7.44622 49.2084 8.61295 49.2942 9.96842H46.7548C46.6519 8.56148 46.1028 7.48054 45.0905 6.70843C44.0954 5.95349 42.7227 5.55886 40.9898 5.55886C39.5828 5.55886 38.4504 5.83338 37.6097 6.36528C36.7518 6.89717 36.1341 7.72075 35.7395 8.836C35.3449 9.95126 35.139 11.444 35.139 13.3142C35.139 15.2016 35.3449 16.7114 35.7395 17.8095C36.1341 18.9248 36.7861 19.7484 37.6612 20.2631C38.5362 20.795 39.703 21.0524 41.1614 21.0524C42.6026 21.0524 43.7694 20.8122 44.6959 20.2974C45.6052 19.7999 46.2744 19.0449 46.7033 18.0154C47.1323 17.0031 47.3039 15.7163 47.2524 14.1721L48.2819 15.0643H41.4874V13.0225H49.5344V22.9741H47.6642V18.8562L47.9215 19.268C47.4583 20.5891 46.669 21.5843 45.5366 22.2363C44.4042 22.9054 42.9458 23.2314 41.1442 23.2314C39.2225 23.2314 37.644 22.8711 36.3915 22.1333Z" fill="black"/>
<path d="M54.5604 22.4254C53.6339 21.8763 52.9304 21.087 52.4671 20.0233C51.9867 18.9595 51.7637 17.6212 51.7637 16.0426C51.7637 14.4641 51.9867 13.1258 52.45 12.062C52.9132 10.9982 53.6167 10.1918 54.5432 9.65993C55.4698 9.12804 56.6365 8.85352 58.0434 8.85352C60.1024 8.85352 61.6637 9.40257 62.7275 10.4835C63.7913 11.5645 64.3232 13.1601 64.3232 15.2705V16.5402H53.1535V14.7215H62.1098C62.0412 13.3832 61.6809 12.4052 61.0117 11.7703C60.3426 11.1355 59.3646 10.8267 58.0606 10.8267C57.0998 10.8267 56.3277 10.9982 55.7443 11.3586C55.1609 11.7189 54.732 12.2679 54.4746 13.04C54.2001 13.8121 54.08 14.8073 54.08 16.0426C54.08 17.278 54.2172 18.2732 54.4574 19.0453C54.7148 19.8174 55.1266 20.3664 55.71 20.7267C56.2933 21.087 57.0654 21.2586 58.0263 21.2586C59.0729 21.2586 59.9136 21.0699 60.5485 20.6581C61.1833 20.2635 61.6123 19.6629 61.8353 18.8394H64.1173C64.0144 19.7487 63.7055 20.538 63.1908 21.2072C62.676 21.8763 61.9726 22.391 61.0975 22.7342C60.2053 23.0774 59.193 23.2661 58.0263 23.2661C56.6537 23.2318 55.4869 22.9572 54.5604 22.4254Z" fill="black"/>
<path d="M66.502 9.07615H68.6982V11.7356H68.8354V22.974H66.5191V9.07615H66.502ZM75.6128 13.846C75.6128 12.9538 75.3726 12.2332 74.9093 11.667C74.4289 11.1179 73.6568 10.8262 72.5758 10.8262C71.7179 10.8262 70.9973 11.015 70.4311 11.3753C69.8649 11.7528 69.4531 12.2503 69.1957 12.9023C68.9384 13.5543 68.8183 14.275 68.8183 15.0985L68.4751 11.6327C68.9384 10.6547 69.556 9.9512 70.3625 9.50509C71.1517 9.05899 72.0782 8.83594 73.1592 8.83594C74.1543 8.83594 75.0122 9.02467 75.7329 9.38499C76.4535 9.76246 77.0025 10.2944 77.3629 11.015C77.7232 11.7356 77.9119 12.645 77.9119 13.7259V22.9911H75.5956V13.846H75.6128Z" fill="black"/>
<path d="M80.5918 3.67139H82.9081V6.53674H80.5918V3.67139ZM80.5918 9.0761H82.9081V22.9739H80.5918V9.0761Z" fill="black"/>
<path d="M89.667 15.7505L85.0344 9.09326H87.711L91.0568 14.0862L94.4197 9.09326H97.0792L92.3437 15.7505L97.3537 22.9911H94.6771L90.9367 17.432L87.2478 22.9911H84.6055L89.667 15.7505Z" fill="black"/>
<path d="M101.18 18.2213C101.18 19.1135 101.42 19.8341 101.9 20.4003C102.381 20.9665 103.17 21.2411 104.251 21.2411C105.109 21.2411 105.812 21.0523 106.378 20.692C106.927 20.3317 107.339 19.817 107.614 19.165C107.871 18.513 108.008 17.7923 108.008 16.9688L108.317 20.4347C107.871 21.4127 107.253 22.1333 106.447 22.5622C105.641 23.0083 104.714 23.2314 103.633 23.2314C102.655 23.2314 101.797 23.0426 101.077 22.6823C100.356 22.322 99.807 21.773 99.4295 21.0523C99.052 20.3317 98.8633 19.4223 98.8633 18.3414V9.07617H101.18V18.2213ZM107.991 9.07617H110.308V22.974H107.991V9.07617Z" fill="black"/>
<path d="M114.923 22.7334C114.065 22.3902 113.413 21.8926 113.001 21.2063C112.572 20.52 112.349 19.645 112.332 18.5812H114.648C114.683 19.1988 114.82 19.7136 115.06 20.1082C115.3 20.5028 115.678 20.7945 116.175 20.9661C116.673 21.1548 117.325 21.2406 118.097 21.2406C118.869 21.2406 119.504 21.172 120.019 21.0176C120.516 20.8803 120.894 20.6401 121.151 20.3141C121.391 20.0053 121.529 19.6106 121.529 19.1645C121.529 18.8214 121.46 18.5297 121.306 18.2895C121.151 18.0493 120.928 17.8605 120.602 17.689C120.276 17.5345 119.83 17.3973 119.264 17.26L116.313 16.5909C115.146 16.3335 114.271 15.8874 113.705 15.2525C113.121 14.6177 112.847 13.8113 112.847 12.8161C112.847 11.9754 113.053 11.2548 113.464 10.6542C113.876 10.0537 114.477 9.59046 115.266 9.28162C116.055 8.97278 116.999 8.81836 118.131 8.81836C119.229 8.81836 120.173 8.98994 120.98 9.31594C121.786 9.65909 122.387 10.1395 122.815 10.7744C123.227 11.4263 123.45 12.1985 123.45 13.125H121.168C121.1 12.5759 120.945 12.1298 120.722 11.8038C120.482 11.4778 120.173 11.2205 119.761 11.066C119.35 10.9116 118.818 10.8258 118.183 10.8258C117.565 10.8258 117.033 10.8945 116.621 11.0317C116.193 11.169 115.867 11.392 115.626 11.6837C115.403 11.9754 115.283 12.3186 115.283 12.7132C115.283 13.0392 115.352 13.3137 115.506 13.5539C115.643 13.777 115.867 13.9829 116.175 14.1373C116.467 14.2917 116.879 14.429 117.394 14.5491L120.619 15.304C121.391 15.4756 122.026 15.733 122.524 16.059C123.021 16.4021 123.382 16.8139 123.639 17.3115C123.879 17.8091 123.999 18.4096 123.999 19.0959C123.999 20.0053 123.776 20.7774 123.347 21.395C122.918 22.0299 122.266 22.4932 121.409 22.802C120.533 23.1108 119.487 23.2653 118.234 23.2653C116.845 23.2309 115.781 23.0594 114.923 22.7334Z" fill="black"/>
</svg>
