<svg width="126" height="27" viewBox="0 0 126 27" fill="none" xmlns="http://www.w3.org/2000/svg">
<path d="M35.2773 13.5188C35.2773 6.90854 39.4552 2.43359 45.6013 2.43359C50.429 2.43359 54.1427 5.31167 54.9411 9.69377H51.8216C51.0232 6.90854 48.6093 5.21883 45.5084 5.21883C41.182 5.21883 38.3225 8.48684 38.3225 13.5003C38.3225 18.5137 41.1635 21.7817 45.5084 21.7817C48.6465 21.7817 51.1532 20.092 51.9516 17.4553H55.0339C54.1055 21.726 50.2805 24.5669 45.4527 24.5669C39.3438 24.5484 35.2773 20.1663 35.2773 13.5188Z" fill="black"/>
<path d="M56.166 24.2142V2.39648H58.9513V24.2327H56.166V24.2142Z" fill="black"/>
<path d="M60.2148 16.991C60.2148 12.4603 63.0929 9.30371 67.3079 9.30371C71.4301 9.30371 74.1225 12.1447 74.1225 16.4525V17.4923L62.9072 17.5294C63.1115 20.5932 64.7084 22.2829 67.475 22.2829C69.6475 22.2829 71.0587 21.3916 71.5415 19.7391H74.1596C73.454 22.8585 71.0216 24.6039 67.4193 24.6039C63.1672 24.5854 60.2148 21.4845 60.2148 16.991ZM62.9815 15.654H71.3372C71.3372 13.2587 69.7589 11.6433 67.3079 11.6433C64.8755 11.6433 63.3343 13.0916 62.9815 15.654Z" fill="black"/>
<path d="M74.5117 20.1847C74.5117 17.5109 76.4985 15.8583 79.9151 15.5798L84.4829 15.227V14.8185C84.4829 12.386 83.0345 11.5319 81.0663 11.5319C78.7267 11.5319 77.3898 12.5717 77.3898 14.3171H74.9574C74.9574 11.2905 77.4455 9.30371 81.1777 9.30371C84.7614 9.30371 87.1938 11.1977 87.1938 15.1156V24.214H84.8171L84.52 21.8744C83.7773 23.527 81.7905 24.5668 79.4509 24.5668C76.35 24.5854 74.5117 22.8214 74.5117 20.1847ZM84.52 17.9565V17.1766L80.8064 17.4737C78.3368 17.7151 77.3341 18.6621 77.3341 20.0919C77.3341 21.633 78.4668 22.4129 80.2679 22.4129C82.9046 22.4129 84.52 20.686 84.52 17.9565Z" fill="black"/>
<path d="M89.2012 24.214V9.71221H91.7264L92.0235 11.9404C92.9519 10.2878 94.7902 9.30371 96.8327 9.30371C100.658 9.30371 102.403 11.6433 102.403 15.357V24.2326H99.6179V15.9697C99.6179 13.0359 98.2625 11.8476 96.1271 11.8476C93.509 11.8476 92.005 13.723 92.005 16.5268V24.214H89.2012Z" fill="black"/>
<path d="M105.687 24.2141V12.0705H102.846V9.71229H105.687V5.18164H108.472V9.71229H111.313V12.0705H108.472V24.2326H105.687V24.2141Z" fill="black"/>
<path d="M118.425 9.34082C122.751 9.34082 125.963 12.4789 125.963 16.9724C125.963 21.4473 122.751 24.6039 118.425 24.6039C114.061 24.6039 110.867 21.4659 110.867 16.9724C110.849 12.4789 114.061 9.34082 118.425 9.34082ZM118.425 22.0786C121.21 22.0786 123.178 19.9804 123.178 16.9538C123.178 13.9272 121.228 11.829 118.425 11.829C115.602 11.829 113.671 13.9272 113.671 16.9538C113.671 19.9804 115.602 22.0786 118.425 22.0786Z" fill="black"/>
<path d="M0.0162198 18.3896C1.29546 14.1681 3.68336 12.7183 5.33216 11.9223C6.81039 11.1974 9.83791 10.6999 12.0126 11.5954C12.0553 11.6096 12.0695 11.6522 12.0695 11.6949C12.0553 11.7375 12.0268 11.766 11.9842 11.766C10.3922 11.8655 8.97087 12.5477 7.91906 13.5995C7.22258 14.296 6.68246 15.1773 6.36976 16.1438C6.02863 17.224 5.11895 17.9489 3.98185 18.0484C2.80211 18.1479 1.62237 18.4038 0.499487 18.816C0.371563 18.8728 0.229426 18.8444 0.12993 18.7449C0.0162198 18.6454 -0.0264214 18.5175 0.0162198 18.3896Z" fill="black"/>
<path d="M10.2779 26.3777C7.25032 23.1796 7.20768 20.3795 7.33561 18.5318C7.4351 16.8972 8.52956 14.0402 10.3916 12.5904C10.42 12.562 10.4768 12.562 10.5053 12.5904C10.5337 12.6188 10.5479 12.6615 10.5337 12.7041C9.82301 14.1255 9.69509 15.7032 10.0931 17.1388C10.3489 18.1053 10.8322 19.0008 11.5287 19.7541C12.2962 20.5927 12.4668 21.7583 11.9835 22.7817C11.4718 23.8619 11.1022 25.0132 10.9033 26.193C10.8748 26.3351 10.7753 26.4488 10.6474 26.4914C10.5053 26.5199 10.3631 26.4772 10.2779 26.3777Z" fill="black"/>
<path d="M22.3175 21.5025C18.0249 22.5117 15.5802 21.1614 14.0593 20.138C12.6948 19.2141 10.7617 16.8404 10.449 14.5094C10.4348 14.4667 10.4632 14.4383 10.5059 14.4099C10.5485 14.3957 10.5911 14.4099 10.6196 14.4383C11.5008 15.7602 12.8085 16.6556 14.2441 17.0394C15.2106 17.2953 16.234 17.3237 17.229 17.1105C18.3376 16.8688 19.4321 17.2953 20.0859 18.2334C20.7682 19.2141 21.5642 20.0954 22.488 20.8629C22.6018 20.9624 22.6444 21.0903 22.616 21.2325C22.5733 21.3746 22.4596 21.4741 22.3175 21.5025Z" fill="black"/>
<path d="M24.1216 8.62482C22.8424 12.8463 20.4687 14.2961 18.8057 15.1063C17.3274 15.8312 14.3141 16.3145 12.1252 15.419C12.0826 15.4048 12.0684 15.3621 12.0684 15.3195C12.0684 15.2769 12.0968 15.2484 12.1394 15.2484C13.7314 15.1489 15.1527 14.4667 16.2046 13.4149C16.901 12.7184 17.4412 11.8513 17.7539 10.8706C18.095 9.79035 19.0047 9.06545 20.1418 8.96595C21.3215 8.86646 22.5012 8.61061 23.6241 8.19841C23.752 8.14156 23.9084 8.16998 23.9937 8.26948C24.1216 8.35476 24.1642 8.4969 24.1216 8.62482Z" fill="black"/>
<path d="M13.8755 0.622355C16.8888 3.83466 16.9456 6.62055 16.8177 8.46834C16.6898 10.1171 15.6238 12.9741 13.7475 14.4097C13.7191 14.4381 13.6765 14.4381 13.6338 14.4097C13.6054 14.3813 13.5912 14.3386 13.6054 14.296C14.3161 12.8746 14.444 11.2969 14.046 9.86128C13.7902 8.89475 13.3069 7.99928 12.6104 7.24596C11.8429 6.40735 11.6723 5.24182 12.1556 4.21843C12.6531 3.13819 13.0226 1.98687 13.2216 0.807134C13.2501 0.664997 13.3496 0.551287 13.4775 0.508646C13.6338 0.480218 13.776 0.522859 13.8755 0.622355Z" fill="black"/>
<path d="M1.82156 5.49784C6.11411 4.48866 8.54465 5.83897 10.0797 6.87657C11.4443 7.80046 13.3915 10.1742 13.69 12.5052C13.7042 12.5479 13.6758 12.5763 13.6332 12.6047C13.5905 12.6189 13.5479 12.6047 13.5195 12.5763C12.6524 11.2402 11.359 10.3447 9.90917 9.96095C8.94264 9.70511 7.91925 9.67668 6.92429 9.88988C5.81562 10.1457 4.72116 9.70511 4.06733 8.767C3.39928 7.78625 2.60331 6.905 1.67942 6.13746C1.56571 6.03796 1.52307 5.91004 1.5515 5.7679C1.57992 5.63998 1.67942 5.54048 1.82156 5.49784Z" fill="black"/>
</svg>
