<svg width="150" height="27" viewBox="0 0 150 27" fill="none" xmlns="http://www.w3.org/2000/svg">
<path d="M8.93779 13.3091C11.8833 14.1345 14.8289 14.9882 17.7887 15.7709C20.1366 16.397 22.513 16.9093 24.8324 17.5781C25.302 17.7204 25.9566 18.3465 25.9708 18.7734C26.0846 21.2493 26.0277 23.7253 26.0277 26.4859C23.2102 26.4859 20.5066 26.5428 17.8171 26.429C17.3903 26.4147 16.8922 25.7886 16.5792 25.3333C14.0605 21.6193 11.5703 17.8769 8.72435 14.2056C8.72435 18.2326 8.72435 22.2596 8.72435 26.3863C5.7361 26.3863 2.98976 26.3863 0.0299796 26.3863C0.0299796 23.7253 -0.0269394 21.1355 0.0868985 18.5599C0.101128 18.1046 0.741466 17.5211 1.23951 17.2508C3.57318 15.9986 5.96378 14.8459 8.61051 13.5084C5.96378 12.185 3.61587 10.947 1.21105 9.82285C0.343034 9.42442 -0.0269394 8.94061 0.00152011 7.94452C0.0726688 5.5397 0.0299796 3.12064 0.0299796 0.616211C2.97553 0.616211 5.72187 0.616211 8.66743 0.616211C8.66743 4.23056 8.6532 7.77377 8.68166 11.3027C8.68166 11.9858 8.86664 12.6688 8.96625 13.3518L8.93779 13.3091Z" fill="black"/>
<path d="M8.96596 13.3517C11.6411 9.25356 14.3021 5.1554 17.0058 1.07147C17.1907 0.786871 17.6603 0.530736 17.9876 0.530736C20.5917 0.488047 23.1815 0.502277 26.0132 0.502277C26.0132 3.27708 26.0416 5.92381 25.9847 8.55631C25.9847 8.8409 25.5721 9.29625 25.2732 9.3674C19.8375 10.7192 14.3875 12.0141 8.9375 13.309L8.96596 13.3517Z" fill="black"/>
<path d="M49.6411 25.189C47.6579 25.189 45.9352 24.8284 44.4929 24.1473C43.0305 23.4462 41.8286 22.5247 40.887 21.4029C39.9255 20.2811 39.2244 19.0591 38.7636 17.737C38.2829 16.4349 38.0625 15.1529 38.0625 13.9309V13.2698C38.0625 11.9277 38.3029 10.5855 38.7837 9.26337C39.2644 7.94124 39.9856 6.71927 40.9672 5.63753C41.9287 4.55579 43.1507 3.6944 44.593 3.03334C46.0353 2.39231 47.718 2.05176 49.6812 2.05176C51.6043 2.05176 53.287 2.37227 54.7293 3.03334C56.1717 3.6944 57.3736 4.55579 58.3552 5.63753C59.3167 6.71927 60.0579 7.92121 60.5387 9.26337C61.0195 10.6055 61.2599 11.9277 61.2599 13.2698V13.9109C61.2599 15.1328 61.0195 16.3949 60.5587 17.717C60.0779 19.0391 59.3768 20.2611 58.4353 21.3829C57.4738 22.5247 56.2718 23.4262 54.8295 24.1273C53.307 24.8284 51.6043 25.189 49.6411 25.189ZM49.6411 21.2226C50.7629 21.2226 51.7646 21.0223 52.666 20.6217C53.5474 20.221 54.3087 19.6601 54.9497 18.959C55.5907 18.2579 56.0515 17.4365 56.392 16.5351C56.7326 15.6336 56.8928 14.652 56.8928 13.6304C56.8928 12.5286 56.7326 11.527 56.392 10.6055C56.0515 9.68405 55.5907 8.88276 54.9497 8.20166C54.3287 7.52056 53.5474 6.99973 52.646 6.59908C51.7445 6.21847 50.7429 6.03818 49.6411 6.03818C48.5193 6.03818 47.4977 6.2385 46.5962 6.59908C45.6948 6.97969 44.9336 7.52056 44.2925 8.20166C43.6515 8.88276 43.1908 9.68405 42.8502 10.6055C42.5097 11.527 42.3494 12.5487 42.3494 13.6304C42.3494 14.652 42.5097 15.6136 42.8502 16.5351C43.1908 17.4566 43.6515 18.2579 44.2925 18.959C44.9135 19.6801 45.6948 20.221 46.5962 20.6217C47.4977 21.0223 48.5193 21.2226 49.6411 21.2226Z" fill="black"/>
<path d="M70.554 25.1289C68.671 25.1289 67.2087 24.5079 66.187 23.2659C65.1453 22.0239 64.6445 20.1809 64.6445 17.737V8.26172H68.8313V18.0775C68.8313 19.0791 69.1117 19.8804 69.6726 20.4614C70.2335 21.0623 70.9948 21.3428 71.9563 21.3428C72.9179 21.3428 73.6991 21.0423 74.3201 20.4213C74.9211 19.8003 75.2416 18.9589 75.2416 17.8972V8.26172H79.4283V24.608H76.123V17.6568H76.4435C76.4435 19.2995 76.2432 20.6817 75.8225 21.7835C75.4019 22.8853 74.7809 23.7266 73.9195 24.2675C73.0781 24.8284 72.0164 25.1088 70.7544 25.1088H70.554V25.1289Z" fill="black"/>
<path d="M82.0938 11.3669V8.30199H93.6323V11.3669H82.0938ZM91.2886 24.8286C89.7861 24.8286 88.5441 24.6283 87.5826 24.2477C86.601 23.847 85.8798 23.206 85.3991 22.2645C84.9183 21.343 84.6779 20.081 84.6779 18.4984L84.718 3.7146H88.6243L88.5842 18.7789C88.5842 19.5801 88.8046 20.2011 89.2252 20.6218C89.6459 21.0625 90.2669 21.2629 91.0682 21.2629H93.6323V24.8286H91.2886Z" fill="black"/>
<path d="M97.1387 24.6081V8.30189H100.444V15.213H100.364C100.364 12.8692 100.865 11.1064 101.866 9.90447C102.868 8.70253 104.33 8.10156 106.273 8.10156H106.874V11.7474H105.733C104.33 11.7474 103.249 12.128 102.467 12.8692C101.686 13.6305 101.305 14.7122 101.305 16.1345V24.6482H97.1387V24.6081Z" fill="black"/>
<path d="M108.176 11.427V8.30198H114.626V11.427H108.176ZM111.982 6.33881C111.161 6.33881 110.56 6.11846 110.159 5.69778C109.758 5.2771 109.578 4.7162 109.578 4.05514C109.578 3.39407 109.778 2.8532 110.159 2.43252C110.56 2.01185 111.161 1.81152 111.982 1.81152C112.803 1.81152 113.404 2.01185 113.785 2.43252C114.165 2.8532 114.346 3.39407 114.346 4.05514C114.346 4.7162 114.145 5.25707 113.785 5.69778C113.404 6.13849 112.803 6.33881 111.982 6.33881ZM110.459 24.6082V8.30198H114.626V24.6283H110.459V24.6082Z" fill="black"/>
<path d="M122.718 24.6085L117.609 8.30226H121.916L126.804 24.6285H122.718V24.6085ZM123.94 24.6085V21.183H128.367V24.6085H123.94ZM125.602 24.6085L129.809 8.28223H133.836L129.428 24.6085H125.602Z" fill="black"/>
<path d="M141.41 25.0289C140.228 25.0289 139.186 24.8285 138.305 24.4079C137.403 23.9872 136.722 23.3862 136.241 22.605C135.74 21.8237 135.5 20.8822 135.5 19.7804C135.5 18.5785 135.8 17.5969 136.381 16.8357C136.962 16.0744 137.804 15.5135 138.885 15.1129C139.947 14.7323 141.209 14.552 142.652 14.552H146.438V17.056H142.591C141.63 17.056 140.889 17.2964 140.388 17.7571C139.867 18.2379 139.627 18.8389 139.627 19.5801C139.627 20.3213 139.887 20.9222 140.388 21.383C140.889 21.8437 141.63 22.0841 142.591 22.0841C143.172 22.0841 143.713 21.984 144.194 21.7636C144.675 21.5633 145.095 21.2027 145.416 20.6819C145.757 20.161 145.937 19.4799 145.977 18.5985L146.999 19.7804C146.898 20.9222 146.618 21.8838 146.177 22.6651C145.736 23.4463 145.095 24.0473 144.314 24.4479C143.513 24.8285 142.551 25.0289 141.41 25.0289ZM146.658 24.6082V19.7604H145.957V14.3917C145.957 13.4502 145.716 12.7491 145.256 12.2883C144.795 11.8276 144.094 11.5872 143.132 11.5872C142.631 11.5872 142.031 11.6072 141.329 11.6273C140.628 11.6473 139.927 11.6673 139.206 11.7074C138.485 11.7274 137.864 11.7675 137.303 11.8076V8.26186C137.764 8.22179 138.284 8.18173 138.865 8.14167C139.446 8.1016 140.047 8.08157 140.648 8.06154C141.249 8.06154 141.83 8.0415 142.371 8.0415C144.054 8.0415 145.456 8.26186 146.558 8.70257C147.66 9.14328 148.521 9.84441 149.082 10.7659C149.663 11.7074 149.943 12.9494 149.943 14.4719V24.5882H146.658V24.6082Z" fill="black"/>
</svg>
