<svg width="94" height="25" viewBox="0 0 94 25" fill="none" xmlns="http://www.w3.org/2000/svg">
<path d="M1.16235 12.5244C7.40997 10.8898 11.5024 6.16777 10.7275 1.67578C7.16781 1.67578 3.59601 1.67578 0 1.67578C0 8.91624 0 16.0841 0 23.3245C3.65655 23.3245 7.22835 23.3245 10.8486 23.3245C10.8001 20.5155 9.86785 18.1545 8.06379 16.1204C6.27184 14.1105 3.98346 12.9966 1.16235 12.5244Z" fill="black"/>
<path d="M10.7891 1.67578C10.8375 4.48479 11.7698 6.84581 13.5739 8.87992C15.3658 10.8898 17.6542 12.0037 20.4753 12.4759C14.2277 14.1226 10.1352 18.8446 10.9101 23.3245C14.4698 23.3245 18.0416 23.3245 21.6376 23.3245C21.6376 16.0841 21.6376 8.91624 21.6376 1.67578C17.969 1.67578 14.4093 1.67578 10.7891 1.67578Z" fill="black"/>
<path d="M37.5814 19.8067C36.2666 19.8067 35.1515 19.6736 34.2194 19.3906C33.304 19.1243 32.4219 18.7915 31.623 18.392V15.3629H31.7895C32.5884 16.1119 33.4871 16.6944 34.5024 17.0938C35.5176 17.5099 36.483 17.7096 37.415 17.7096C38.7465 17.7096 39.7617 17.4267 40.4441 16.8775C41.1265 16.3282 41.476 15.5793 41.476 14.6805C41.476 13.9648 41.293 13.3657 40.9434 12.9163C40.5939 12.4669 40.0114 12.1174 39.2291 11.901C38.6633 11.7346 38.164 11.6015 37.6979 11.5016C37.2319 11.4017 36.6494 11.2519 35.9504 11.0689C35.3179 10.9024 34.7687 10.7027 34.2694 10.453C33.7701 10.2034 33.3373 9.87053 32.9545 9.47108C32.5884 9.07164 32.2888 8.60562 32.0891 8.05638C31.8893 7.52379 31.7728 6.89133 31.7728 6.1923C31.7728 4.72767 32.3387 3.49605 33.4871 2.49743C34.6355 1.49882 36.1002 0.999512 37.881 0.999512C38.8963 0.999512 39.8616 1.09937 40.7604 1.2991C41.6591 1.49882 42.5079 1.7984 43.2735 2.16456V5.06054H43.0905C42.5079 4.52795 41.7756 4.07857 40.8769 3.67912C39.9781 3.27968 39.0294 3.07996 38.0308 3.07996C36.9157 3.07996 36.0003 3.34625 35.3179 3.8622C34.6189 4.3948 34.286 5.07718 34.286 5.926C34.286 6.69161 34.4857 7.30742 34.9018 7.77344C35.3013 8.22281 35.9004 8.55568 36.666 8.77205C37.182 8.9052 37.7978 9.07164 38.5468 9.23807C39.2791 9.40451 39.8949 9.57094 40.3942 9.72073C41.6425 10.1035 42.5579 10.6861 43.1404 11.4517C43.7229 12.2173 44.0059 13.1826 44.0059 14.2977C44.0059 14.9967 43.8561 15.6958 43.5731 16.3948C43.2902 17.0938 42.8741 17.6764 42.3581 18.1424C41.7756 18.675 41.1099 19.0744 40.3776 19.3574C39.612 19.6736 38.6966 19.8067 37.5814 19.8067Z" fill="black"/>
<path d="M50.3792 19.7568C49.1309 19.7568 48.1489 19.4073 47.4499 18.6917C46.7509 17.976 46.4014 16.8609 46.4014 15.313V7.77349H44.8535V5.85948H46.4014V1.94824H48.6982V5.85948H52.909V7.75684H48.6982V14.2478C48.6982 14.9469 48.7148 15.4628 48.7315 15.8456C48.7481 16.2118 48.848 16.5613 49.0144 16.8942C49.1476 17.1771 49.3806 17.3935 49.6801 17.5266C49.9964 17.6764 50.4125 17.743 50.9284 17.743C51.2946 17.743 51.6607 17.693 52.0102 17.5765C52.3598 17.46 52.6094 17.3768 52.7592 17.3102H52.8924V19.374C52.4596 19.4906 52.0269 19.5904 51.5775 19.657C51.1614 19.7069 50.7453 19.7568 50.3792 19.7568Z" fill="black"/>
<path d="M62.2131 18.0256C62.03 18.1588 61.7803 18.3585 61.4641 18.6082C61.1479 18.8578 60.8483 19.0575 60.5487 19.2073C60.1493 19.4237 59.7498 19.5735 59.367 19.69C58.9842 19.8065 58.4516 19.8564 57.7692 19.8564C57.2034 19.8564 56.6708 19.7566 56.1715 19.5402C55.6722 19.3238 55.2228 19.0242 54.84 18.6581C54.4738 18.2919 54.1742 17.8259 53.9579 17.2767C53.7415 16.7274 53.625 16.1449 53.625 15.5457C53.625 14.5971 53.8247 13.7982 54.2242 13.1324C54.6236 12.4667 55.2561 11.9507 56.1215 11.5513C56.8871 11.2018 57.7859 10.9521 58.8344 10.819C59.8663 10.6858 60.9981 10.586 62.1964 10.5194V10.0867C62.1964 9.55407 62.1132 9.12133 61.9468 8.78846C61.7803 8.45559 61.564 8.20594 61.2644 8.02286C60.9648 7.83978 60.6153 7.70663 60.1992 7.6567C59.7831 7.59013 59.3337 7.57348 58.901 7.57348C58.3684 7.57348 57.7526 7.6567 57.0369 7.80649C56.3213 7.97293 55.6056 8.18929 54.8899 8.48888H54.7568V6.15878C55.1729 6.04228 55.7887 5.90913 56.5709 5.75933C57.3532 5.60954 58.1354 5.54297 58.9177 5.54297C59.8497 5.54297 60.6486 5.60954 61.281 5.75933C61.9301 5.90913 62.496 6.17542 63.012 6.55823C63.5113 6.92438 63.8774 7.42369 64.1271 8.00621C64.3767 8.60538 64.4932 9.32106 64.4932 10.1699V19.4903H62.2131V18.0256ZM62.2131 16.1283V12.3502C61.6638 12.4001 60.9815 12.4667 60.1493 12.5499C59.3171 12.6331 58.6514 12.7496 58.1354 12.9161C57.5196 13.0991 57.0203 13.3821 56.6208 13.7815C56.2214 14.1643 56.0217 14.7136 56.0217 15.396C56.0217 16.1782 56.238 16.7607 56.6874 17.1602C57.1202 17.5596 57.7692 17.7593 58.6181 17.7593C59.3337 17.7593 59.9995 17.6095 60.582 17.2933C61.1479 16.9604 61.6971 16.5776 62.2131 16.1283Z" fill="black"/>
<path d="M74.9303 8.32262H74.8138C74.6474 8.27269 74.4643 8.2394 74.2646 8.2394C74.0815 8.22276 73.8485 8.22276 73.5822 8.22276C72.9664 8.22276 72.3506 8.35591 71.7348 8.6222C71.119 8.8885 70.5531 9.28795 70.0038 9.82054V19.4904H67.707V5.85938H70.0038V7.88989C70.836 7.15757 71.5683 6.62498 72.1841 6.3254C72.8 6.02581 73.4158 5.87602 73.9983 5.87602C74.2313 5.87602 74.4144 5.87602 74.5309 5.89266C74.6474 5.90931 74.7805 5.92595 74.9303 5.94259V8.32262Z" fill="black"/>
<path d="M79.0409 19.4736H76.7441V0.5H79.0409V19.4736Z" fill="black"/>
<path d="M93.1208 5.85938L85.7977 24.5002H83.3511L85.781 18.8247L80.8379 5.85938H83.3178L87.0293 15.9454L90.7408 5.85938H93.1208Z" fill="black"/>
</svg>
