<svg width="157" height="26" viewBox="0 0 157 26" fill="none" xmlns="http://www.w3.org/2000/svg">
<path d="M8.45067 19.4856C8.45067 17.1073 8.45067 15.0023 8.45067 12.8973C8.27298 12.8973 8.19097 12.87 8.13629 12.8973C5.56658 14.6879 2.98319 16.4785 0.413478 18.2828C0.249454 18.4058 0.0170859 18.6108 0.0170859 18.7749C-0.0102515 20.9345 0.00341718 23.0805 0.00341718 25.4179C0.00341718 25.4452 0.00341718 25.4725 0.00341718 25.4999C0.0444233 25.4725 0.0717607 25.4452 0.112767 25.4179H8.43701H24.8394V8.08594C19.7684 11.6398 14.6973 15.18 9.62618 18.7339C9.29813 18.9526 8.97009 19.1439 8.45067 19.4856Z" fill="black"/>
<path d="M8.5332 0.5C8.5332 4.5186 8.5332 8.55086 8.5332 12.6105C8.95693 12.3371 9.25764 12.1457 9.55836 11.9407C14.5474 8.44151 19.5365 4.956 24.5256 1.45681C24.6349 1.3748 24.7443 1.30645 24.84 1.22444V0.5H8.5332Z" fill="black"/>
<path d="M36.3047 24.2731V2.91113H39.5147L47.0621 21.2159L54.5712 2.91113H57.8004V24.2731H55.24V7.36313L48.2849 24.2731H45.8201L38.8842 7.42045V24.2731H36.3047Z" fill="black"/>
<path d="M61.6797 19.6686C61.6797 15.9427 65.291 15.2357 68.5201 14.9109C70.9849 14.6625 73.1249 14.7007 73.1632 13.3823C73.1249 11.3378 71.4626 9.90479 69.0169 9.90479C66.6667 9.90479 64.8324 11.2232 64.5649 13.1339H62.0618C62.3675 9.96211 65.2336 7.72656 69.0742 7.72656C73.0676 7.72656 75.628 10.115 75.628 13.5352V21.4074C75.628 21.9233 75.8955 22.2099 76.4496 22.2099H77.3668V24.2926H75.9337C74.1949 24.2926 73.2778 23.4901 73.2778 21.9997V21.5029C72.3224 23.3563 70.5072 24.5218 67.6985 24.5218C64.0299 24.5218 61.6797 22.6302 61.6797 19.6686ZM73.144 17.7579V15.6561C72.4371 16.6114 70.641 16.7834 68.6538 16.9936C66.4183 17.242 64.2018 17.5477 64.2018 19.6113C64.2018 21.2927 65.7304 22.3627 68.0424 22.3627C71.0805 22.3627 73.144 20.4329 73.144 17.7579Z" fill="black"/>
<path d="M80.1934 24.2735V8.10872H82.1996L82.5053 11.185C83.5371 9.1023 85.4287 8.01318 88.1229 8.01318H88.677V10.5162H88.1229C84.7218 10.5162 82.7346 12.4652 82.7346 15.7898V24.2735H80.1934Z" fill="black"/>
<path d="M93.9691 21.197L93.7016 24.2733H91.6953V1.38281H94.1984V10.6307C95.383 8.85375 97.4275 7.72642 99.8732 7.72642C104.153 7.72642 107.134 11.1466 107.134 16.0954C107.134 21.1397 104.134 24.6172 99.8732 24.6172C97.2364 24.6172 95.0582 23.2988 93.9691 21.197ZM104.516 16.0954C104.516 12.465 102.472 9.92376 99.4529 9.92376C96.3957 9.92376 94.1984 12.3886 94.1984 15.9617C94.1984 19.7449 96.3957 22.4008 99.472 22.4008C102.472 22.4199 104.516 19.8213 104.516 16.0954Z" fill="black"/>
<path d="M109.656 16.2484C109.656 10.7264 113.229 7.72656 117.318 7.72656C121.77 7.72656 124.636 10.7264 124.732 15.9045V16.6114H112.178C112.331 20.0699 114.338 22.42 117.605 22.42C119.86 22.42 121.503 21.2927 122.191 19.1909H124.655C123.929 22.5156 121.293 24.6174 117.605 24.6174C112.828 24.6174 109.656 21.1016 109.656 16.2484ZM122.076 14.5096C121.617 11.6627 119.917 9.9239 117.318 9.9239C114.758 9.9239 112.866 11.6053 112.35 14.5096H122.076Z" fill="black"/>
<path d="M128.154 24.2733V1.38281H130.696V24.2733H128.154Z" fill="black"/>
<path d="M135.014 24.2733V1.38281H137.555V24.2733H135.014Z" fill="black"/>
<path d="M140.975 16.0382C140.975 10.6309 144.509 7.72656 148.904 7.72656C154.063 7.72656 156.834 11.4525 156.834 16.0382C156.834 21.6175 153.452 24.6174 148.904 24.6174C143.707 24.6174 140.975 20.9297 140.975 16.0382ZM154.254 16.0382C154.254 12.4078 152.152 9.94301 148.904 9.94301C145.656 9.94301 143.554 12.4078 143.554 16.0382C143.554 20.1845 145.962 22.42 148.904 22.42C152.343 22.42 154.254 19.554 154.254 16.0382Z" fill="black"/>
</svg>
