<svg width="20" height="20" viewBox="0 0 20 20" fill="none" xmlns="http://www.w3.org/2000/svg">
<path fill-rule="evenodd" clip-rule="evenodd" d="M8.8581 11.1444C7.6881 9.97436 6.8061 8.66436 6.2201 7.33536C6.0961 7.05436 6.1691 6.72536 6.3861 6.50836L7.2051 5.69036C7.8761 5.01936 7.8761 4.07036 7.2901 3.48436L6.1161 2.31036C5.3351 1.52936 4.0691 1.52936 3.2881 2.31036L2.6361 2.96236C1.8951 3.70336 1.5861 4.77236 1.7861 5.83236C2.2801 8.44536 3.7981 11.3064 6.2471 13.7554C8.6961 16.2044 11.5571 17.7224 14.1701 18.2164C15.2301 18.4164 16.2991 18.1074 17.0401 17.3664L17.6911 16.7154C18.4721 15.9344 18.4721 14.6684 17.6911 13.8874L16.5181 12.7144C15.9321 12.1284 14.9821 12.1284 14.3971 12.7144L13.4941 13.6184C13.2771 13.8354 12.9481 13.9084 12.6671 13.7844C11.3381 13.1974 10.0281 12.3144 8.8581 11.1444Z" stroke="black" stroke-width="1.5" stroke-linecap="round" stroke-linejoin="round"/>
</svg>
