<svg width="26" height="24" viewBox="0 0 26 24" fill="none" xmlns="http://www.w3.org/2000/svg">
<path d="M22.308 0L24.856 3.16318C23.8853 4.03347 22.9493 5.37239 22.048 7.17992C21.1813 8.95398 20.7133 11.1967 20.644 13.908L26 14.5607V24H15.6V19.5314C15.6 19.1297 15.6173 18.2929 15.652 17.0209C15.6867 15.7155 15.7213 14.8452 15.756 14.41C15.7907 13.9414 15.8427 13.1548 15.912 12.0502C15.9813 10.9456 16.0853 10.1423 16.224 9.64017C16.3627 9.13808 16.536 8.43515 16.744 7.53138C16.952 6.62762 17.212 5.90795 17.524 5.37239C17.8707 4.83682 18.252 4.21757 18.668 3.51464C19.1187 2.81172 19.6387 2.19247 20.228 1.6569C20.852 1.08787 21.5453 0.535565 22.308 0ZM7.02 0L9.568 3.16318C8.59733 4.03347 7.66133 5.37239 6.76 7.17992C5.89333 8.95398 5.42533 11.1799 5.356 13.8577L10.4 14.5607V24H0V19.5314C0 17.4895 0.0173333 15.9331 0.052 14.8619C0.0866667 13.7908 0.225333 12.4184 0.468 10.7448C0.710667 9.03766 1.05733 7.64854 1.508 6.57741C1.99333 5.50628 2.68667 4.3682 3.588 3.16318C4.524 1.95816 5.668 0.903766 7.02 0Z" fill="black"/>
</svg>
