<?xml version="1.0" encoding="UTF-8"?>
<svg version="1.1" viewBox="0 0 2048 668" width="346" height="113" xmlns="http://www.w3.org/2000/svg">
<path transform="translate(0)" d="m0 0h2048v668h-2048z" />
<path transform="translate(263,215)" d="m0 0h21l19 3 15 5 16 8 11 8 10 9 9 10-1-39h91v180l-1 109-13 1h-69l-7-2-1-38-7 8-8 8-13 9-16 8-15 6-17 4h-22l-18-3-16-5-16-7-11-7-13-10-11-11-12-16-10-19-6-17-5-20-2-13-1-12v-16l2-21 5-23 6-17 8-16 7-12 11-13 10-10 15-11 16-8 16-6 14-3z" fill="#383838"/>
<path transform="translate(1652,215)" d="m0 0h25l23 3 19 5 20 8 16 9 12 9 10 9 7 7 11 15 11 21 7 21 3 14 1 8v38l-3 19-6 20-9 19-12 17-11 12-7 7-17 12-15 8-21 8-20 5-14 2h-32l-22-3-21-6-16-7-16-9-13-10-12-11-9-11-9-14-8-16-5-15-4-18-2-16v-22l3-22 5-19 6-15 8-15 10-14 12-13 13-11 16-10 17-8 23-7 16-3z" fill="#383838"/>
<path transform="translate(635,215)" d="m0 0h26l22 3 15 4 16 6 17 9 16 12 12 12 11 15 10 19 7 21 1 8-1 1h-89l-5-2-9-14-4-5-11-7-9-3-7-1h-11l-14 3-11 6-9 9-7 11-5 15-2 12v26l3 17 4 12 7 12 9 9 12 6 8 2h20l15-5 8-6 7-8 6-11 1-1h94l-1 8-4 14-10 21-11 16-12 13-12 10-14 9-19 9-20 6-18 3h-35l-25-4-21-7-16-8-11-7-13-10-11-11-11-15-9-16-8-22-5-24-1-10v-27l3-21 5-20 9-21 9-15 9-11 9-10 14-11 13-8 17-8 20-6 16-3z" fill="#383838"/>
<path transform="translate(1243,218)" d="m0 0h28l3 8 44 144 15 49 2 4 15-50 17-55 22-72 8-27 4-1h91l-1 7-12 36-17 47-19 53-18 50-20 56-14 38-3 3-18 1h-71l-19-1-3-5-6-15-13-36-18-50-20-56-13-36-19-53-13-37v-1z" fill="#383838"/>
<path transform="translate(850,145)" d="m0 0h89l1 74h58v74l-57 1-1 2v90l1 29 3 7 4 5 6 3 4 1 40 1 1 1v73l-1 2-12 1h-32l-22-2-20-4-13-5-13-7-10-8-9-9-8-14-4-10-4-18-1-8-1-130-34-1-1-2v-72l35-2z" fill="#383838"/>
<path transform="translate(1049,219)" d="m0 0h90v97l-1 192h-89z" fill="#383838"/>
<path transform="translate(292,294)" d="m0 0h16l14 3 12 6 9 7 8 9 6 10 5 15 2 13v11l-3 19-5 13-7 11-8 8-13 8-11 4-11 2h-12l-15-3-16-8-10-9-7-10-5-11-4-15-1-9v-13l3-16 5-13 8-11 9-9 14-8 10-3z" />
<path transform="translate(1653,294)" d="m0 0h25l13 4 11 7 10 10 8 13 4 13 2 12v19l-3 17-5 13-7 11-10 9-12 7-15 4h-19l-12-3-12-6-11-10-7-11-5-14-3-17v-20l3-16 5-12 6-9 7-8 10-7 13-5z" />
<path transform="translate(1897,414)" d="m0 0h20l12 3 13 7 8 8 7 12 3 9 1 12-3 15-6 11-9 9-14 8-11 3h-19l-15-4-9-5-10-9-6-8-4-11-1-6v-10l2-10 7-14 10-10 10-6 9-3z" fill="#383838"/>
<path transform="translate(1089,88)" d="m0 0h9l16 3 12 6 10 9 7 11 4 13v15l-4 12-7 11-11 9-10 5-10 3h-22l-13-4-10-6-8-7-8-12-3-10v-18l4-13 7-10 9-8 12-6z" fill="#FF000"/>
</svg>
